<?xml version="1.0" encoding="utf-8"?>
<!-- Generator: Adobe Illustrator 25.0.1, SVG Export Plug-In . SVG Version: 6.00 Build 0)  -->
<svg version="1.1" xmlns="http://www.w3.org/2000/svg" xmlns:xlink="http://www.w3.org/1999/xlink" x="0px" y="0px"
	 viewBox="0 0 737.4 607.5" style="enable-background:new 0 0 737.4 607.5;" xml:space="preserve">
<style type="text/css">
	.st0{clip-path:url(#SVGID_2_);fill:none;stroke:#FCF8F0;stroke-width:4.756;stroke-miterlimit:10;}
	.st1{clip-path:url(#SVGID_4_);fill:none;stroke:#FCF8F0;stroke-width:4.756;stroke-miterlimit:10;}
	.st2{fill:#1ABB9C;}
	.st3{fill:#1D2239;}
	.st4{fill:none;stroke:#1D2239;stroke-width:1.098;stroke-linecap:round;stroke-miterlimit:10;}
	.st5{fill:#FFAA2D;}
	.st6{fill:none;stroke:#1D2239;stroke-width:2.196;stroke-miterlimit:10;}
	.st7{fill:#001A2D;}
	.st8{fill:none;stroke:#EBE3CD;stroke-width:2.6845;stroke-miterlimit:10;}
	.st9{fill:#FE9567;}
	.st10{fill:#1E214F;}
	.st11{fill:#84312E;}
	.st12{fill:#FF5710;}
	.st13{fill:#FFC088;}
	.st14{fill:#EBD0C6;}
	.st15{fill:#FFFFFF;}
	.st16{fill:#F6E8E2;}
	.st17{fill:#A1392D;}
	.st18{opacity:0.5;}
	.st19{fill:#FDCFB7;}
	.st20{fill:#430505;}
	.st21{opacity:0.5;fill:#430505;}
	.st22{fill:none;stroke:#001A2D;stroke-width:0.5;stroke-linecap:round;stroke-miterlimit:10;}
	.st23{fill:#93B4E2;}
	.st24{fill:none;stroke:#1D2239;stroke-width:3;stroke-miterlimit:10;}
	.st25{fill:#D9782C;}
	.st26{fill:#FCF8F0;}
	.st27{fill:#E8A7CB;}
	.st28{display:none;}
</style>
<g id="Capa_2">
</g>
<g id="OBJECTS">
	<g>
		<g>
			<defs>
				<path id="SVGID_1_" d="M351.9,450.5H225.7V263.7c0-34.8,28.2-63.1,63.1-63.1h0c34.8,0,63.1,28.2,63.1,63.1V450.5z"/>
			</defs>
			<clipPath id="SVGID_2_">
				<use xlink:href="#SVGID_1_"  style="overflow:visible;"/>
			</clipPath>
			<path class="st0" d="M351.9,450.5H225.7V256.2c0-30.7,24.9-55.6,55.6-55.6h14.9c30.7,0,55.6,24.9,55.6,55.6V450.5z"/>
			<line class="st0" x1="219.1" y1="272.5" x2="360.4" y2="272.5"/>
			<line class="st0" x1="219.1" y1="308.8" x2="360.4" y2="308.8"/>
			<line class="st0" x1="219.1" y1="345.2" x2="360.4" y2="345.2"/>
			<line class="st0" x1="219.1" y1="381.5" x2="360.4" y2="381.5"/>
			<line class="st0" x1="219.1" y1="417.9" x2="360.4" y2="417.9"/>
			<line class="st0" x1="288.8" y1="196.5" x2="288.8" y2="456.8"/>
			<polyline class="st0" points="227.6,210.9 288.8,272.5 345.5,215.5 			"/>
			<use xlink:href="#SVGID_1_"  style="overflow:visible;fill:none;stroke:#FCF8F0;stroke-width:4.756;stroke-miterlimit:10;"/>
		</g>
		<g>
			<defs>
				<path id="SVGID_3_" d="M715.6,450.5H589.4V263.7c0-34.8,28.2-63.1,63.1-63.1h0c34.8,0,63.1,28.2,63.1,63.1V450.5z"/>
			</defs>
			<clipPath id="SVGID_4_">
				<use xlink:href="#SVGID_3_"  style="overflow:visible;"/>
			</clipPath>
			<path class="st1" d="M715.6,450.5H589.4V256.2c0-30.7,24.9-55.6,55.6-55.6H660c30.7,0,55.6,24.9,55.6,55.6V450.5z"/>
			<line class="st1" x1="582.8" y1="272.5" x2="724.1" y2="272.5"/>
			<line class="st1" x1="582.8" y1="308.8" x2="724.1" y2="308.8"/>
			<line class="st1" x1="582.8" y1="345.2" x2="724.1" y2="345.2"/>
			<line class="st1" x1="582.8" y1="381.5" x2="724.1" y2="381.5"/>
			<line class="st1" x1="582.8" y1="417.9" x2="724.1" y2="417.9"/>
			<line class="st1" x1="652.5" y1="196.5" x2="652.5" y2="456.8"/>
			<polyline class="st1" points="591.3,210.9 652.5,272.5 709.2,215.5 			"/>
			<use xlink:href="#SVGID_3_"  style="overflow:visible;fill:none;stroke:#FCF8F0;stroke-width:4.756;stroke-miterlimit:10;"/>
		</g>
		<g>
			<g>
				<g>
					<path class="st2" d="M62,398.4l18.5,84.3l-52.7-68.3c-7.4-9.6-4.2-23.7,6.7-29.1l0,0C45.8,379.6,59.3,386.1,62,398.4z"/>
				</g>
				<g>
					<g>
						<path class="st3" d="M58.1,432.8c3.2-7.8,5.1-16.3,7-24.5c0.1-0.3-0.3-0.4-0.4-0.1c-2,8.2-4.8,16.3-6.8,24.5
							C57.9,432.9,58,432.9,58.1,432.8L58.1,432.8z"/>
					</g>
				</g>
				<g>
					<g>
						<path class="st3" d="M22.9,402.1c7.5,2.7,15.2,5,22.7,7.6c0.2,0.1,0.3-0.3,0.1-0.4c-7.5-2.7-15.1-5.3-22.8-7.4
							C22.9,401.9,22.8,402,22.9,402.1L22.9,402.1z"/>
					</g>
				</g>
				<g>
					<g>
						<path class="st3" d="M50.1,442.6c5.7,2.8,10.9,5.5,15.8,9.6c0.3,0.2,0.6-0.2,0.4-0.4c-4.7-4-10.2-7.6-16.1-9.4
							C50,442.4,50,442.6,50.1,442.6L50.1,442.6z"/>
					</g>
				</g>
			</g>
			<line class="st4" x1="35.2" y1="385.2" x2="98.7" y2="519.8"/>
			<g>
				<g>
					<path class="st2" d="M146.4,434.9L106.7,481l16.3-58.7c2.3-8.3,11.6-12.4,19.3-8.6l0,0C150.2,417.7,152.2,428.1,146.4,434.9z"
						/>
				</g>
				<line class="st4" x1="142.2" y1="413.7" x2="92.7" y2="507"/>
				<line class="st4" x1="123.6" y1="420.5" x2="132" y2="433"/>
				<line class="st4" x1="125.4" y1="445.3" x2="139.9" y2="442.5"/>
				<line class="st4" x1="118.3" y1="458.9" x2="115" y2="448"/>
			</g>
			<g>
				<path class="st5" d="M134.3,546.6c-0.9-13.2-8.8-24.2-19.9-29.7l-0.4-6.3l-35.9,2.3l0.4,6.6l0,0c-10,6.9-16.3,18.7-15.5,31.7
					c1.3,19.7,18.2,34.5,37.9,33.3C120.7,583.2,135.6,566.2,134.3,546.6z"/>
			</g>
			<polyline class="st6" points="146.5,599.9 134.2,550.7 63.2,550.7 56.1,599.9 			"/>
			<line class="st6" x1="62.3" y1="557.5" x2="135.7" y2="557.5"/>
			<line class="st6" x1="99" y1="557.5" x2="99" y2="599.9"/>
			<line class="st4" x1="23" y1="401.9" x2="46.7" y2="409.6"/>
			<line class="st4" x1="64.7" y1="408.2" x2="57.9" y2="432.8"/>
			<line class="st4" x1="50.1" y1="442.6" x2="66.3" y2="451.8"/>
		</g>
		<g>
			<path class="st7" d="M495,202.4h-37V146c0-10.2,8.3-18.5,18.5-18.5h0c10.2,0,18.5,8.3,18.5,18.5V202.4z"/>
			<g>
				<rect x="474.7" class="st7" width="3.6" height="131.1"/>
			</g>
		</g>
		<line class="st8" x1="445.3" y1="186.6" x2="511.4" y2="186.6"/>
		<g>
			<g>
				<g>
					<g>
						<path class="st9" d="M228.7,592c0,0-2.4-8.1-4.9-17.8h15.1l-1.4,18.7c2.9,2,8.3,5.5,10.8,6.5c3.6,1.4,4.2,2.5,4.2,2.5H228
							c-1.5-1.6,0.9-6.8,1.4-7.7C228.9,593,228.7,592,228.7,592z"/>
						<path class="st10" d="M228.3,597.2c0,0-1.1-1.5-0.3-2.6c0.3-0.5,4.1,2.1,5.1,2c0.9-0.2,3.5-3.5,3.5-3.5s2.5-3.2,3.3-3
							c0.8,0.2,0.9,3.5,0.9,3.5s8.5,5.4,10.1,5.8c1.2,0.2,2.3,1,2.9,2c0.3,0.5-0.1,1.1-0.7,1.1h-24.6c-0.3,0-0.6-0.2-0.7-0.5
							C227.4,600.8,226.8,598.3,228.3,597.2z"/>
					</g>
					<g>
						<path class="st11" d="M212.7,402.1c0,0-2.3,15.2-2.8,22.8c-0.5,7.6,8.3,92.6,8.3,92.6l4.8,70.8h17.1l8.1-186.4L212.7,402.1z"
							/>
					</g>
				</g>
				<g>
					<g>
						<path class="st9" d="M251.7,592c0,0-1.3-4.3-2.9-10.4h12.6l-0.8,11.3c2.9,2,8.3,5.5,10.8,6.5c3.6,1.4,4.2,2.5,4.2,2.5H251
							c-1.5-1.6,0.9-6.8,1.4-7.7C252,593,251.7,592,251.7,592z"/>
						<path class="st7" d="M250.6,597.2c0,0-1.1-1.5-0.3-2.6c0.3-0.5,4.1,2.1,5.1,2c0.9-0.2,3.5-3.5,3.5-3.5s2.5-3.2,3.3-3
							c0.8,0.2,0.9,3.5,0.9,3.5s8.5,5.4,10.1,5.8c1.2,0.2,2.3,1,2.9,2c0.3,0.5-0.1,1.1-0.7,1.1h-24.6c-0.3,0-0.6-0.2-0.7-0.5
							C249.7,600.8,249,598.3,250.6,597.2z"/>
					</g>
					<g>
						<path class="st11" d="M270.8,402.6c0,0,1.8,15.7,2.1,21c0.2,5.3-9.4,164.8-9.4,164.8h-16.6L242.5,427l-9.7-24.7L270.8,402.6z"
							/>
					</g>
				</g>
			</g>
			<g>
				<g>
					<path class="st7" d="M209.8,404.1h31.9v0.1h29.6c0,0,1.9,16.9,2.2,25.2c0.3,8.3-4,104.1-4,104.1s-0.8,0.1-2.4,0.2
						c-0.3,0-0.6,0-0.9,0.1c-1.8,0.1-4.2,0.2-7.1,0.4c-0.3,0-0.6,0-0.9,0c-2.2,0.1-4.5,0.2-7.1,0.2c-0.3,0-0.6,0-0.9,0
						c-2.3,0.1-4.6,0.1-7.1,0.1c-0.3,0-0.6,0-0.9,0c-2.3,0-4.7,0-7.1-0.1c-0.3,0-0.6,0-0.9,0c-2.4-0.1-4.7-0.1-7.1-0.3
						c-0.3,0-0.6,0-0.9,0c-1.9-0.1-3.8-0.2-5.6-0.4c-0.9-0.1-1.6-0.8-1.6-1.7l-1.2-125.1h-8.2V404.1z"/>
				</g>
			</g>
		</g>
		<g>
			<g>
				<g>
					<g>
						<path class="st5" d="M293.2,352c3.5,7.5,7.3,16.2,10.2,24.4c5.6-8.5,17.4-24.9,24.2-30.4c0.5-1,1.3-1.9,2.5-2.3
							c1.5-0.5,3.1-1,3.9-1.1c0.1,0,0.1,0,0.2,0c2.4-0.9,9.4-1.6,9.7-1.2c0.4,0.5-1,1.4-1.8,1.6c-0.4,0.1-1.4,0.7-2.3,1.3
							c-0.1,0.3,0,0.5,0,0.7l6.5-2c0,0,1.9-1.2,2-0.9c0.1,0.3-0.9,1.6-1.5,2.1c-0.1,0.1-0.6,0.3-1.2,0.6c2.3-0.4,4.5-0.6,4.5-0.2
							c0,0.8-7.4,4.4-8.9,5.1c-1.1,0.5-5.9,1.4-9.3,1.6c-2.6,11.9-13,35.3-14.8,39.6c-2,4.6-8.3,8.8-10.8,10.3
							c-0.1,0.1-0.1,0.1-0.2,0.2c-4.3,3.5-17.2-10.3-29.5-25.8C283.8,368.7,289.2,360.8,293.2,352z"/>
						<path class="st7" d="M300.1,384.7c0.1-0.8,0.2-1.5,0.4-2.3c0.2-0.7,0.4-1.4,0.7-2.1c0.3-0.7,0.7-1.4,1.1-2
							c0.4-0.6,0.9-1.2,1.3-1.8l1.7-2.2l-2.3,1.5c-0.9,0.6-1.9,1.3-2.7,2.1l0,0.1c1.1-0.3,2.1-0.8,3.1-1.3l-0.6-0.7
							c-0.6,0.6-1,1.3-1.3,2c-0.4,0.7-0.7,1.4-0.9,2.2c-0.3,0.7-0.5,1.5-0.6,2.3C299.9,383.2,299.9,383.9,300.1,384.7L300.1,384.7z"
							/>
					</g>
					<path class="st12" d="M260,314.1c0,0,12.7,2.1,21.9,13.8c9.2,11.8,16.1,30.6,16.1,30.6s-6.2,17.3-19.4,20.7l-16.8-15.2
						L260,314.1z"/>
				</g>
				<g>
					<ellipse class="st13" cx="335.3" cy="340.4" rx="38.7" ry="5.9"/>
					<g>
						<g>
							<ellipse class="st14" cx="325.7" cy="337" rx="11.4" ry="4.7"/>
							<path class="st15" d="M314.3,337c0,2.6,5.1,4.7,11.4,4.7c6.3,0,11.4-2.1,11.4-4.7c0-0.1,0-0.2,0-0.4
								c-0.4,2.4-5.4,4.3-11.4,4.3c-6,0-10.9-1.9-11.4-4.3C314.3,336.8,314.3,336.9,314.3,337z"/>
						</g>
						<path class="st16" d="M320.5,336.2c0.1,0.2,0.2,0.4,0.4,0.5c0.5,0.7,1.3,1.3,2.1,1.5c2.4,0.8,4.3,0.4,5.4,0
							c0.7-0.2,1.2-0.6,1.7-1.1c3.1-3.4,2.7-8.8,2.7-8.8h-14.5c0,0.4,0,0.8,0,1.1c-0.7-0.1-3.1-0.2-3.8,1.9
							C313.8,333.7,317.3,335.6,320.5,336.2z M316.4,330.7c0.8-0.3,1.9,0.7,2.3,1.1c0.2,0.9,0.4,1.7,0.7,2.4
							C315.2,333.7,315.3,331,316.4,330.7z"/>
						<g>
							<path class="st14" d="M318.4,328.3c0,1.1,3.2,2,7.2,2c4,0,7.2-0.9,7.2-2s-3.2-2-7.2-2C321.7,326.2,318.4,327.2,318.4,328.3z"
								/>
							<path class="st17" d="M318.5,328.5c0.5,1,3.5,1.8,7.2,1.8c3.7,0,6.7-0.8,7.2-1.8c-0.5-1-3.5-1.8-7.2-1.8
								C322,326.8,319,327.6,318.5,328.5z"/>
						</g>
					</g>
				</g>
			</g>
			<g>
				<g>
					<path class="st5" d="M258.6,316.8c-7,1.3-14.2,1.9-21.3,1.1c-3.6-0.4-7-1.2-10.3-2.5c5.1-2.5,6.6-4.3,6.6-4.3
						c2.9-3.2,4.8-14.9,4.8-14.9l6.6,4.8l6.6-0.4c0,0,0.6,7.8,3.6,10.8c0,0,1.1,1.2,5,3.1C259.7,315.3,259.1,316,258.6,316.8z"/>
					<path class="st7" d="M252,303.6c-3,0.8-6.8,0.6-10.2-1.9c-1.5-1.1-2.7-2.6-3.7-4.2c0-0.3,0.1-0.5,0.1-0.7
						c0.7,0.9,1.5,1.7,2.4,2.3c3.7,2.7,7.8,2.7,11,1.6C251.7,301.2,251.8,302.3,252,303.6z"/>
				</g>
				<g>
					<path class="st12" d="M260,314.1c0,0-1.8-2.3-3.9-3c0,0-8.5,6.9-22.6,0c0,0-3.5,0.9-4.6,2.8c0,0-16.8,6.9-18.4,8.3
						c-1.6,1.4-3,22.1-2.5,30.6c0.5,8.5,4.1,51.4,4.1,51.4s27.4,10.6,59.2,0c0,0,8.5-73.3,8.3-76.3
						C279.3,324.9,272.4,316.9,260,314.1z"/>
				</g>
			</g>
			<g>
				<g>
					<g>
						<g>
							<g>
								<g>
									<path class="st5" d="M257.1,403c0,0,6-0.6,6.7-0.9c0.7-0.3,2.1-1.2,2-1.6c0-0.3-2.2,0.3-2.2,0.3l-7.2,0.1L257.1,403z"/>
									<path class="st5" d="M243.8,397.5c0,0-0.7,5.1,1.2,6.3c1.9,1.2,10.4,2.3,12,2c1.6-0.3,9.6-1.6,9.9-2.4c0.3-0.8-9-1.6-9-1.6
										s-1.5-0.1-0.8-1.6c0,0-3.4-3-5.1-3.2C250.3,396.8,245.8,397,243.8,397.5z"/>
									<path class="st5" d="M255.3,400.8c0,0,3.6-1.1,4.4-1.1s2.4-0.4,2.1-1c-0.3-0.5-8.6-2.1-10.3-1.5c-1.7,0.6-0.6,3.1-0.6,3.1
										L255.3,400.8z"/>
								</g>
							</g>
							<path class="st5" d="M196.6,362c0,0-5.5,14.9-5.2,26.9c0.2,6.6,5.1,12.1,11.6,13.3c8.7,1.5,23.7,3.2,41.9,1.6l0.7-6.5
								l-35-11.8l10.8-19.4L196.6,362z"/>
						</g>
					</g>
					<path class="st7" d="M210.6,385.1c-0.6-0.2-1.2-0.4-1.9-0.6c-0.3-0.1-0.6-0.3-1-0.2c-0.3,0-0.7,0.1-1,0.3l0,0.1
						c0.3,0.3,0.6,0.5,0.9,0.6c0.3,0.1,0.6,0,1,0.1C209.3,385.3,209.9,385.2,210.6,385.1L210.6,385.1z"/>
				</g>
				<g>
					<path class="st12" d="M228.9,313.9c0,0-18.2,7.1-20.5,9.4c-2.3,2.3-13.8,38.7-13.8,38.7s11.1,10.6,28.8,8.1l18.7-37.3
						L228.9,313.9z"/>
					<g class="st18">
						<path class="st7" d="M218.9,370.3l4.2-0.1l0.1,0l0-0.1l6.9-12.8c1.2-2.1,2.3-4.3,3.4-6.4c1.1-2.2,2.1-4.4,3-6.6l-0.1,0
							c-1.3,2-2.5,4.2-3.7,6.3c-1.2,2.1-2.3,4.3-3.3,6.5l-6.4,13l0.1-0.1L218.9,370.3L218.9,370.3z"/>
					</g>
				</g>
			</g>
		</g>
		<g>
			<g>
				<g>
					<path class="st5" d="M230.9,284.8c0.7-0.5,1.5-0.3,2.1-0.2c-1.7-6.3,0.9-12.9,6.4-15.6c6.4-3.1,14.4,0.1,17.8,7.1
						c0.4,0.8,0.7,1.7,1,2.5c0,0,0,0,0,0c0.8,2.1,1.5,5.5,1.4,9c0,2.6-0.5,5.2-1.7,7.5c-0.6,1.1-1.3,2.1-2.2,2.9
						c-2.6,2.8-9.4,5-15.1,0.9c-2.1-1.5-3.7-3.9-4.9-6.4C230.6,293.7,229.9,285.6,230.9,284.8z"/>
					<g>
						<g>
							<g>
								<path class="st19" d="M250.3,288c0,0.1,0.2,0.2,0.4,0.2c0.2,0,0.4-0.1,0.4-0.3c0-0.1-0.2-0.2-0.4-0.2
									C250.5,287.8,250.3,287.9,250.3,288z"/>
							</g>
							<path class="st20" d="M251,285c0,0.4,0,0.8,0.1,1.3c0.1,0.4,0.3,0.8,0.4,1.2c0.2,0.4,0.2,0.7,0.1,1.1
								c-0.1,0.3-0.4,0.7-0.8,0.8c0.4,0,0.8-0.3,1.1-0.7c0.2-0.4,0.1-0.9,0-1.3c-0.2-0.4-0.4-0.7-0.5-1.1
								C251.3,285.8,251.2,285.4,251,285z"/>
							<path class="st20" d="M250.1,289.2c0-0.2-0.1-0.3-0.2-0.4c-0.1-0.1-0.2-0.2-0.4-0.2c0,0.2,0.1,0.3,0.2,0.4
								C249.8,289.1,249.9,289.2,250.1,289.2z"/>
						</g>
						<g>
							<path class="st20" d="M249.1,293.1c0.4,0.2,0.8,0.3,1.2,0.3c0.2,0,0.4,0,0.6-0.1c0.2,0,0.4-0.1,0.6-0.2
								C250.7,293.2,250,293.3,249.1,293.1z"/>
							<g>
								<path class="st20" d="M247,290.5c0.4,0.4,1,0.8,1.5,1c0.6,0.2,1.2,0.3,1.8,0.3c0.6,0,1.2-0.1,1.8-0.4
									c0.3-0.1,0.5-0.3,0.8-0.4c0.3-0.2,0.5-0.3,0.7-0.5c-0.6,0.2-1.1,0.5-1.7,0.6c-0.6,0.2-1.1,0.2-1.7,0.2
									c-0.6,0-1.1-0.1-1.7-0.2C248.1,291,247.5,290.8,247,290.5z"/>
							</g>
						</g>
					</g>
				</g>
				<g>
					<path class="st7" d="M228,277.5c0.8-1.1,2.2-1.7,3.5-2.1c1.7-5,6.4-9.1,11.5-10.5c2.4-0.6,4.9-0.7,7.2,0.2c4-1.5,8.1,1.2,9,4.4
						c1,3.3-0.3,11.9-0.3,11.9s-0.1-0.1-0.1-0.1c-1.9-0.4-3.8-0.8-5.7-1.2c-1.5-0.3-3-0.6-4.4-1.4c-0.7-0.4-1.4-1-2.3-0.9
						c-0.8,0-1.5,0.6-2.3,0.5c-0.9-0.1-1.4-1-2.1-1.4c-1.2-0.8-3.2-0.4-3.9,0.8c0.5,1.5,1,3.3,0.2,4.7c-0.2,0.3-0.4,0.6-0.6,1
						c-0.2,0.5-0.2,1.2-0.3,1.7c-0.2,0.9-0.8,1.8-1.7,2.2c-1-1.2-2.4-2.1-3.9-2.6c-0.3,0-0.7,0.1-1,0.3c-0.3,0.2-0.5,1.1-0.4,2.2
						c-1.3-1.4-2.3-3.2-2.9-5.1C227.2,280.5,227.1,278.7,228,277.5z"/>
					<path class="st21" d="M237.6,276.5c-0.7-0.4-1.4-0.8-2.1-1.2c-0.3-0.2-0.7-0.4-1.1-0.5c-0.4-0.1-0.8-0.1-1.2-0.1l0,0.1
						c0.3,0.4,0.6,0.6,0.9,0.8c0.3,0.2,0.7,0.3,1.1,0.4C236,276.2,236.8,276.4,237.6,276.5L237.6,276.5z"/>
				</g>
				<path class="st22" d="M231.7,288.6c0,0-0.2-2,1.1-2.1c1.2,0,2.7,2.8,2.1,4.7"/>
			</g>
			<g>
				<g>
					<path class="st15" d="M259.8,290.2c0,0-5.7-3.5-8.3-3.4c-2.6,0.1-9.1,3.8-9.1,3.8s0.4,7.3-1,9.3c0,0,6.8,5.1,13.3,0.2
						C260,296.2,259.8,290.2,259.8,290.2z"/>
					<path class="st15" d="M243,290.8c-1.6-1.5-3.3-2.8-5.2-3.9c-0.9-0.5-1.9-1.1-2.9-1.5c-1-0.4-2-0.9-3.1-0.9c1,0.4,1.9,1,2.8,1.5
						l2.7,1.7C239.2,288.8,241.1,289.9,243,290.8z"/>
					<path class="st15" d="M243.4,300.1c-1.9-0.4-3.5-1.3-4.7-2.6c-0.6-0.6-1.1-1.4-1.6-2.2c-0.2-0.4-0.4-0.8-0.7-1.2
						c-0.2-0.4-0.4-0.8-0.7-1.3c0,0.5,0.1,1,0.2,1.4c0.1,0.5,0.3,0.9,0.5,1.4c0.4,0.9,0.9,1.8,1.6,2.5c0.7,0.7,1.5,1.3,2.5,1.7
						C241.4,300.1,242.4,300.3,243.4,300.1z"/>
				</g>
				<path class="st23" d="M260,290.3c-0.2,1.2-0.6,2.4-1,3.6c-0.4,1.2-1,2.2-1.7,3.2c-0.7,1-1.6,1.8-2.5,2.6c-0.9,0.8-1.9,1.4-3,2.1
					l0,0.1c0.6-0.1,1.3-0.2,1.9-0.5c0.3-0.1,0.6-0.3,0.9-0.4l0.8-0.5c1.1-0.8,1.9-1.8,2.5-2.9C259.2,295.3,259.9,292.8,260,290.3
					L260,290.3z"/>
			</g>
		</g>
		<line class="st24" x1="0" y1="601.8" x2="737.4" y2="601.8"/>
		<g>
			<polygon class="st7" points="363.9,601.4 371.8,498.2 367.1,498.2 359.3,601.4 			"/>
			<polygon class="st7" points="420.1,601.4 412.3,498.2 416.9,498.2 424.7,601.4 			"/>
			<path class="st7" d="M362.8,493.5c0,0-9-61.6-7-73.4c2-11.8,11.5-9.9,16.8,7.9c5.3,17.7,18.6,65.5,18.6,65.5H362.8z"/>
			<rect x="362.8" y="493.5" class="st25" width="58.4" height="7.5"/>
			<path class="st5" d="M465.9,390.5l5.2-4.3l2.6,2.4c0,0,10-4.6,10.5-3.9c0.5,0.8-2,2.4-2,2.4s-0.4,1.7-0.7,3.2
				c-0.3,1.5-2.2,2.3-2.2,2.3s6.5,1.3,6.7,2.1c0.2,0.8-7.5,0.8-7.5,0.8s4.4,3.5,4.5,4.3c0.1,0.4-1.1,0.7-6.5-2.6l-7.5,2L465.9,390.5
				z"/>
			<path class="st5" d="M465.9,390.5c0,0,1.9-4.4,3.2-5c1.3-0.6,6.4-4.1,6.5-3.3c0.1,0.7-4.4,6.2-4.4,6.2L465.9,390.5z"/>
			<path class="st7" d="M485.7,380.9c0,0-8.4,0.7-8.3,5.5c0.1,4.4,5.3,6.6,10.1,6l-1.1-2.1c0,0-7.2,0-7.2-3.6
				c0.1-3.6,6.5-3.3,6.5-3.3L485.7,380.9z"/>
			<path class="st5" d="M484.1,384.7c-0.4-1.3-8.4,1.1-8.3,2c0.1,0.9,2,2.2,2,2.2s-1.1,1.1-0.6,2.3c0.3,0.7,2.1,1.8,3.9,0.2
				c2.8-2.7,1-4.2,1-4.2L484.1,384.7z"/>
			<path class="st7" d="M499.1,395.4c-3.2,0.1-6.4,0.2-9.5,0.5c-4.5-4.9-5.4-16.8-5.4-16.8l19.5,0
				C503.6,379.1,503.2,390.3,499.1,395.4z"/>
			<polygon class="st5" points="470.8,398.8 467.4,401.8 460.4,396.8 465.9,390.5 			"/>
			<path class="st26" d="M363.2,427.3l0.2,45.1l51-4.5l3-54l-8.7-24.5l-16.3-2.9l-9.1,1.9l-15.1,3.1c-3.3,0.7-6.1,2.5-8,5.3
				L363.2,427.3z"/>
			<path class="st7" d="M415.8,442.2l-41.9-4l-11.6-19.9v8.4l0.9,11.4c6.3,10.4,12.4,16.4,15.8,17.2c3.5,0.8,26.7-2.5,36.2-3.9
				L415.8,442.2z"/>
			<path class="st7" d="M399.8,345.9c0,0,3.2,6,2.7,12.2c-0.6,6.2-6.3-12.2-6.3-12.2L399.8,345.9z"/>
			<path class="st7" d="M381.4,382.8c-1.2,0.2-2.9,2.5-2.6,4.7c0.7,4.5,6.9,12.4,8.5,11.5c1.6-0.9,5-6.1,5-6.1s7.2,3.8,8.3,3.3
				c1.1-0.5-2.8-11.3-6-12.8C391.5,381.9,381.4,382.8,381.4,382.8z"/>
			<g>
				<path class="st5" d="M383.2,388.4l-5.6-17.6c0,0-6.7,3.4-8.1-2.3c-1.2-5.1,4.4-6.2,7.4-4.1c0,0-7.2-17.3,8.2-20.8
					c15.4-3.5,18.3,17.8,19.1,22.9c1.3,9.1-4.6,14.3-9.3,15.4l1.1,5.5c0,0,1,4.8-3.5,5.6C386.3,393.9,383.2,388.4,383.2,388.4z"/>
			</g>
			<g>
				<path class="st5" d="M401.9,361.2c0,0,5.9-5.1,7.9,0.8c2.1,6.5-7.3,5.7-7.3,5.7L401.9,361.2z"/>
			</g>
			<g>
				<path class="st7" d="M397.5,360.7c0,0.9,0.7,1.7,1.7,1.7c0.9,0,1.7-0.7,1.7-1.7c0-0.9-0.7-1.7-1.7-1.7
					C398.2,359,397.5,359.7,397.5,360.7z"/>
			</g>
			<g>
				<path class="st7" d="M387.6,360.9c0,0.9,0.7,1.7,1.7,1.7c0.9,0,1.7-0.7,1.7-1.7c0-0.9-0.7-1.7-1.7-1.7
					C388.3,359.2,387.6,359.9,387.6,360.9z"/>
			</g>
			<g>
				<path class="st7" d="M392.9,366.9c-0.2,0-0.4-0.1-0.4-0.3c-0.1-0.2,0-0.5,0.3-0.6c0.6-0.2,0.5-1,0.2-2.9
					c-0.1-0.7-0.3-1.5-0.4-2.4c0-0.2,0.2-0.5,0.4-0.5c0.3,0,0.5,0.2,0.5,0.4c0.1,0.8,0.2,1.6,0.4,2.3c0.3,1.8,0.6,3.4-0.8,3.9
					C393,366.9,392.9,366.9,392.9,366.9z"/>
			</g>
			<g>
				<path class="st7" d="M393.3,370.4c-0.4,0-0.8,0-1.2-0.1c-1.2-0.3-2.4-1.1-3.1-2.1c-0.1-0.2-0.1-0.5,0.1-0.6
					c0.2-0.1,0.5-0.1,0.6,0.1c0.6,0.9,1.5,1.5,2.6,1.8c1,0.3,2.2,0.1,3.1-0.4c0.2-0.1,0.5,0,0.6,0.2c0.1,0.2,0,0.5-0.2,0.6
					C395.1,370.2,394.2,370.4,393.3,370.4z"/>
			</g>
			<g>
				<path class="st7" d="M403.9,366.6c-0.2,0-0.4-0.2-0.5-0.4c0-1.4-0.2-2.8-0.5-4.2c-0.1-0.2,0.1-0.5,0.3-0.5
					c0.2,0,0.5,0.1,0.5,0.3c0.3,1.4,0.5,2.9,0.6,4.4C404.3,366.4,404.1,366.6,403.9,366.6C403.9,366.6,403.9,366.6,403.9,366.6z"/>
			</g>
			<g>
				<path class="st7" d="M403.9,364.2c-0.2,0-0.4-0.1-0.4-0.3c-0.1-0.2,0.1-0.5,0.3-0.6l2.2-0.6c0.2-0.1,0.5,0.1,0.6,0.3
					c0.1,0.2-0.1,0.5-0.3,0.6l-2.2,0.6C404,364.2,403.9,364.2,403.9,364.2z"/>
			</g>
			<g>
				<path class="st7" d="M376.1,368.5c-0.2,0-0.4-0.1-0.4-0.4c-0.2-0.8-0.7-1.4-1.4-1.7c-0.7-0.3-1.6-0.2-2.2,0.2
					c-0.2,0.1-0.5,0.1-0.6-0.1c-0.1-0.2-0.1-0.5,0.1-0.6c0.9-0.6,2.1-0.7,3-0.2c1,0.4,1.7,1.3,2,2.3
					C376.6,368.2,376.4,368.5,376.1,368.5C376.1,368.5,376.1,368.5,376.1,368.5z"/>
			</g>
			<g>
				<path class="st7" d="M373.9,368.3c-0.1,0-0.2,0-0.2-0.1c-0.2-0.1-0.3-0.4-0.2-0.6l0.8-1.4c0.1-0.2,0.4-0.3,0.6-0.2
					c0.2,0.1,0.3,0.4,0.2,0.6l-0.8,1.4C374.2,368.2,374,368.3,373.9,368.3z"/>
			</g>
			<path class="st7" d="M397.9,350.4c-4.6,2.4-14.5-0.4-17.8,0.3c-3.3,0.6-3.1,6.5-2.1,10.6c1.1,4.1,0.7,6.2,0,5
				c-0.7-1.2-4-3.4-6.1-2.8c0,0-5.3-8.6-4-13.1c1.3-4.5,5.6-3.6,5.6-3.6c-0.7-0.7-0.2-1.6,0.1-2.5c0.5-1.5,1.5-2.8,2.9-3.6
				c1.4-0.8,3-1.1,4.6-0.7c-0.7-1.7-0.1-4.2,1.4-5.3c1.4-1.1,3.6-1.1,5,0c1.2-2.6,3.9-4.5,6.7-4.7c2.9-0.2,5.8,1.2,7.4,3.6
				c1.6,2.4,1.8,5.7,0.5,8.2c2,0.6,3.5,2.4,3.8,4.5c0.3,2-0.8,4.2-2.5,5.3C401.6,352.5,399.6,351.5,397.9,350.4z"/>
			<g>
				<path class="st7" d="M384,356.8c-0.2,0-0.3-0.1-0.4-0.2c-0.2-0.2-0.2-0.6,0.1-0.8c1.6-1.3,3.9-1.7,5.8-1
					c0.3,0.1,0.4,0.4,0.3,0.7c-0.1,0.3-0.4,0.4-0.7,0.3c-1.6-0.6-3.5-0.3-4.8,0.8C384.2,356.8,384.1,356.8,384,356.8z"/>
			</g>
			<g>
				<path class="st7" d="M394,355.8c-0.1,0-0.2,0-0.3-0.1c-0.2-0.2-0.3-0.5-0.1-0.8c1.4-1.7,4-2.1,5.8-0.8c0.2,0.2,0.3,0.5,0.1,0.8
					c-0.2,0.2-0.5,0.3-0.8,0.1c-1.3-0.9-3.3-0.6-4.3,0.6C394.4,355.8,394.2,355.8,394,355.8z"/>
			</g>
			<path class="st7" d="M394.8,381.8c-3,0.9-9.4-1.1-9.4-1.1s4.3,3.9,10,3.9L394.8,381.8z"/>
			<path class="st7" d="M408.4,585.8l-3.6,11c0,0,12.7,8,13.6,7.4c1-0.6-4-9-4-9l2.6-7.8L408.4,585.8z"/>
			<path class="st7" d="M447.6,587.8l-3.8,11.4c0,0,14.7,2.9,15.4,2c0.7-0.9-5.6-6.9-5.6-6.9l2.4-8.1L447.6,587.8z"/>
			<path class="st11" d="M363.4,472.4l51.2-7.8c0,0,63.2,2.4,67.2,10.7c4,8.3-20.6,114.1-20.6,114.1l-18.6-0.6l16.5-93.9
				L363.4,472.4z"/>
			<path class="st7" d="M439,474.5l11.2,18.3l8.8,2.1c1-3.4,2.9-9.3,1.7-11.1C456.6,477.2,439,474.5,439,474.5z"/>
			<path class="st26" d="M410.7,408.4l4.8,10.4c0,0,1.2,2,3,4.9c0.3,0.5,0.6,1,1,1.5v0c4.5,6.7,12.1,16.4,18.2,16.4
				c6.4,0,33.2-41.5,33.2-41.5l-11.1-5.9l-22.6,28.3c0,0-16.6-25.6-18-27.3c-3.1-3.6-6.5-5.1-10.5-5.7L410.7,408.4z"/>
			<path class="st7" d="M416.9,421.7l0.4-7.8l4.1,14C421.4,427.9,417.9,423.8,416.9,421.7z"/>
			<path class="st11" d="M363.4,472.4c-0.7,21.9,7,20.9,21.5,22.8c14.5,1.8,46.8,1.5,46.8,1.5l-27.9,90.4l17.7,4.3
				c0,0,39.8-96,36.4-107.1c-3.4-11.1-55.2-15.6-55.2-15.6L363.4,472.4z"/>
			<path class="st26" d="M360.1,396.7c-4.4,7.6,6.8,51.1,17.7,56.2c10.9,5.1,50-8.5,50-8.5l-0.8-13.6l-39.3,4.9L360.1,396.7z"/>
			<polygon class="st7" points="387.7,435.8 377.5,413.9 389,434 409.3,433.1 			"/>
			<path class="st5" d="M427.1,434.9c0,0,6.7-1.2,9.4-1.5c2.7-0.2,9.4,2.9,9.4,4.1c0,1.1-4.4,6.9-4.4,6.9h-13.6L427.1,434.9z"/>
		</g>
		<g>
			<g>
				<polygon class="st7" points="699.9,602.4 691.8,495.9 696.6,495.9 704.7,602.4 				"/>
				<polygon class="st7" points="641.9,602.4 650,495.9 645.2,495.9 637.1,602.4 				"/>
				<path class="st7" d="M701.1,491c0,0,9.3-63.6,7.2-75.8c-2.1-12.2-11.9-10.2-17.4,8.1c-5.5,18.3-19.2,67.7-19.2,67.7H701.1z"/>
				<rect x="640.8" y="491" class="st25" width="60.3" height="7.8"/>
			</g>
			<g>
				<g>
					<path class="st5" d="M597.8,424.2l-5.3-4.5l-2.7,2.5c0,0-10.3-4.8-10.8-4c-0.5,0.8,2,2.5,2,2.5s0.4,1.8,0.7,3.3
						c0.3,1.5,2.2,2.4,2.2,2.4s-6.7,1.4-6.9,2.2s7.7,0.9,7.7,0.9s-4.5,3.6-4.7,4.4c-0.1,0.4,1.1,0.7,6.7-2.6l7.8,2L597.8,424.2z"/>
					<path class="st5" d="M597.8,424.2c0,0-1.9-4.6-3.3-5.2c-1.4-0.6-6.6-4.2-6.7-3.4s4.5,6.4,4.5,6.4L597.8,424.2z"/>
					<path class="st7" d="M577.3,414.2c0,0,8.6,0.7,8.5,5.7c-0.1,4.5-5.5,6.8-10.5,6.2l1.1-2.2c0,0,7.5,0,7.4-3.7
						c-0.1-3.7-6.7-3.4-6.7-3.4L577.3,414.2z"/>
					<path class="st5" d="M578.9,418.2c0.4-1.3,8.6,1.2,8.6,2.1c-0.1,0.9-2.1,2.3-2.1,2.3s1.1,1.1,0.6,2.3c-0.3,0.8-2.2,1.9-4,0.2
						c-2.9-2.8-1.1-4.4-1.1-4.4L578.9,418.2z"/>
					<path class="st7" d="M563.5,429.3c3.3,0.1,6.6,0.2,9.8,0.5c4.7-5.1,5.6-17.3,5.6-17.3l-20.1,0
						C558.8,412.4,559.2,423.9,563.5,429.3z"/>
					<polygon class="st5" points="592.7,432.7 599.8,434.9 604.4,427.9 597.8,424.2 					"/>
				</g>
				<path class="st2" d="M648.1,404.5L630.9,432l-31.3-8.6l-3.6,11.8c0,0,31.7,12.4,42,9.2c10.3-3.2,39.5-45.3,36.7-52.5
					c-1-2.7-10.7,1.3-17.3,4.4C653.7,398,650.4,400.9,648.1,404.5z"/>
				<path class="st7" d="M655,428.9l-0.2-7.4c0,0-3.3-7.6-2.3-11.9c0,0-2.7,7.6,0.3,12l-0.5,9.8L655,428.9z"/>
				<path class="st2" d="M682.5,391.2c0,0,10.7,4.2,18.5,11.4l-6.5,57.8l-38.7-3.3l-0.9-35.6c0,0-7.5-10.4,0.6-18.6
					C662.7,395.4,667.5,388.7,682.5,391.2z"/>
				<path class="st15" d="M623.6,598.2l0.9,4.3c0,0-19.7,4.8-20.1,3.7c-0.5-1.1,9.7-9.7,9.7-9.7l7.2-21.2L623.6,598.2z"/>
				<path class="st15" d="M650,598.1l1.1,3.6c0,0-18.5,6.7-19.2,5.7s8.5-10,8.5-10l4.4-2.5L650,598.1z"/>
				<path class="st5" d="M655.7,457.2c0,0-56.1,0.6-64.1,17.2c-7.5,15.7,22.4,122.1,22.4,122.1l9.6,1.8l-9.7-115.3
					c0,0,80.8,12.8,81.5-23.6L655.7,457.2z"/>
				<path class="st7" d="M611,501.2c3.4-13.4-1.5-23.2-1.5-23.2c-12.4,6.2-10.3,9,4.9,46.5L611,501.2z"/>
				<path class="st5" d="M661.2,465.2c0,0-51.5,2.7-57.7,20c-3.5,9.7,36.9,112.2,36.9,112.2l9.6,0.7l-23.9-105.8
					c0,0,20.2,0.4,40.3-0.3c18.6-0.7,29.8-10.9,25.7-32.9L661.2,465.2z"/>
				<path class="st26" d="M655.7,457.2c0,0-27,0.3-46.2,6c9.3,1.9,18.8,5.2,23.8,12.3c2,2.8,3.1,6.1,3.6,9.5
					c23.9,0.9,58-2.1,58.5-25.7L655.7,457.2z"/>
				<path class="st26" d="M695.5,459.3l-34.3,5.9c0,0-17.4,0.9-33.2,5.1c2.1,1.5,3.9,3.2,5.3,5.2c3.5,4.8,4.2,10.9,3.7,17
					c9.1,0,22.3,0,34-0.4C689.6,491.3,699.6,481.3,695.5,459.3z"/>
				<path class="st12" d="M652,388.5c-1.3-0.2-1.9-1.9-1.8-3.2c0.1-1.3,0.8-2.6,0.8-4c0-2.7-2.3-5.2-1.8-7.8c0.4-1.9,2.1-3.2,2.5-5
					c0.5-2.3-1-4.7-0.4-7c0.6-2.2,3-3.4,4.4-5.2c2.2-2.7,2.2-7.1,5.1-9.1c2-1.5,4.8-1.3,7.2-2.2c1.8-0.7,3.3-1.9,5.1-2.4
					c2.8-0.7,5.6,0.4,8.2,1.6c3.9,1.7,7.9,3.5,11.2,6.3c3.3,2.8,5.9,6.7,6.1,11c0.1,2.8-0.7,5.7,0.2,8.4c0.7,2.1,2.5,4,2,6.2
					c-0.4,2-2.7,3.3-2.9,5.3c-0.2,1.6,0.9,3,1.4,4.5c0.7,2.4-0.4,5.2-2.6,6.5L652,388.5z"/>
				<g>
					<path class="st5" d="M684.2,393.4l3.8-18.8c0,0,7.4,2.7,8.1-3.3c0.6-5.4-5.2-5.9-8.1-3.5c0,0,5.5-18.7-10.8-20.6
						c-16.3-1.9-16.9,20.5-17.1,25.9c-0.3,9.5,6.4,14.2,11.3,14.8l-0.5,5.8c0,0-0.5,5.1,4.3,5.4
						C681.6,399.5,684.2,393.4,684.2,393.4z"/>
				</g>
				<g>
					<path class="st5" d="M661.8,367.5c0,0-6.7-4.6-8.1,1.7c-1.5,7,8.2,5.1,8.2,5.1L661.8,367.5z"/>
				</g>
				<g>
					<path class="st7" d="M676.5,366.3c0.1,1-0.6,1.8-1.5,1.9c-1,0.1-1.8-0.6-1.9-1.5c-0.1-1,0.6-1.8,1.5-1.9
						C675.5,364.6,676.4,365.3,676.5,366.3z"/>
				</g>
				<g>
					<path class="st7" d="M667.9,366c0.1,1-0.6,1.8-1.5,1.9c-1,0.1-1.8-0.6-1.9-1.5c-0.1-1,0.6-1.8,1.5-1.9
						C666.9,364.3,667.8,365,667.9,366z"/>
				</g>
				<g>
					<path class="st7" d="M671.2,373.1c0,0-0.1,0-0.1,0c-0.8-0.2-1.8-0.5-2.2-1.5c-0.4-1-0.1-2.3,1-4.3c0.1-0.3,0.5-0.3,0.7-0.2
						c0.3,0.1,0.3,0.5,0.2,0.7c-1.1,2-1.1,2.9-0.9,3.3c0.2,0.4,0.6,0.7,1.5,0.9c0.3,0.1,0.5,0.4,0.4,0.6
						C671.7,372.9,671.5,373.1,671.2,373.1z"/>
				</g>
				<g>
					<path class="st7" d="M670.3,375.8c-0.3,0-0.5-0.2-0.5-0.5c0-0.3,0.2-0.5,0.5-0.5c1.3,0,2.6-0.6,3.6-1.5c0.2-0.2,0.5-0.2,0.7,0
						c0.2,0.2,0.2,0.5,0,0.7C673.5,375.1,671.9,375.8,670.3,375.8C670.3,375.8,670.3,375.8,670.3,375.8z"/>
				</g>
				<g>
					<path class="st7" d="M660.3,373.4c-0.3,0-0.5-0.2-0.5-0.5c-0.1-1.5-0.1-3.1,0.1-4.6c0-0.3,0.3-0.5,0.6-0.5
						c0.3,0,0.5,0.3,0.5,0.6c-0.2,1.5-0.2,3-0.1,4.4C660.9,373.1,660.7,373.3,660.3,373.4C660.4,373.4,660.4,373.4,660.3,373.4z"/>
				</g>
				<g>
					<path class="st7" d="M660,370.8C660,370.8,660,370.8,660,370.8l-2.4-0.4c-0.3,0-0.5-0.3-0.4-0.6c0-0.3,0.3-0.5,0.6-0.4l2.3,0.4
						c0.3,0,0.5,0.3,0.4,0.6C660.5,370.6,660.3,370.8,660,370.8z"/>
				</g>
				<g>
					<path class="st7" d="M689.3,372.2C689.3,372.2,689.3,372.2,689.3,372.2c-0.3,0-0.6-0.3-0.5-0.6c0.1-1.1,0.8-2.1,1.8-2.7
						c1-0.5,2.2-0.6,3.2-0.1c0.3,0.1,0.4,0.4,0.2,0.7c-0.1,0.3-0.4,0.4-0.7,0.2c-0.7-0.3-1.6-0.3-2.3,0.1c-0.7,0.4-1.2,1.1-1.2,1.9
						C689.8,372,689.6,372.2,689.3,372.2z"/>
				</g>
				<g>
					<path class="st7" d="M691.5,371.7c-0.2,0-0.3-0.1-0.4-0.2l-1-1.4c-0.2-0.2-0.1-0.6,0.1-0.7c0.2-0.2,0.6-0.1,0.7,0.1l1,1.4
						c0.2,0.2,0.1,0.6-0.1,0.7C691.7,371.6,691.6,371.7,691.5,371.7z"/>
				</g>
				<g>
					<path class="st7" d="M680.3,360.5c-0.1,0-0.2,0-0.3-0.1c-1.4-1-3.4-1.1-5-0.3c-0.3,0.1-0.6,0-0.7-0.2c-0.1-0.3,0-0.6,0.2-0.7
						c1.9-1,4.3-0.8,6,0.4c0.2,0.2,0.3,0.5,0.1,0.7C680.6,360.4,680.5,360.5,680.3,360.5z"/>
				</g>
				<g>
					<path class="st7" d="M670,360.6c-0.1,0-0.3-0.1-0.4-0.2c-1.2-1.2-3.2-1.2-4.5-0.2c-0.2,0.2-0.5,0.2-0.7,0
						c-0.2-0.2-0.2-0.5,0-0.7c1.7-1.5,4.4-1.4,5.9,0.2c0.2,0.2,0.2,0.5,0,0.7C670.2,360.6,670.1,360.6,670,360.6z"/>
				</g>
				<path class="st7" d="M670.9,387.8c3.2,0.6,10.1-2.1,10.1-2.1s-4,4.5-9.9,5.1L670.9,387.8z"/>
				<path class="st12" d="M697.1,365.7c-2.3-6.1-7.1-11-10.8-16.3c-1.3-1.8-4.1-3.8-6.4-4c0,0-6.1-0.5-6.1-0.5l-5.6,2.2l-4.4,2.7
					l-3.6,6.4l-1,5.2l1.4,5.3c0,0,0.3-8,5.8-13.6c-0.3,1.3,1.2,2.6,2.4,3.1c1.2,0.5,2.6,0.9,3.3,2c0.8,1.3,0.5,3.2,1.6,4.2
					c1.4,1.5,4.2,0.3,5.8,1.5c2,1.5,0.5,4.9,1.8,7c0.9,1.4,2.7,1.8,3.7,3.1c1.6,2.1,0.4,5.3,1.7,7.5c1,1.7,3.2,2.3,5.1,1.9
					c1.9-0.5,3.4-1.8,4.5-3.4C699,375.9,698.9,370.3,697.1,365.7z"/>
				<path class="st5" d="M655.2,454.7c0,0-7.8,2-9.9,4.6c-2.1,2.6-1.3,13.7,0.3,14c1.6,0.3,6.9,0.4,6.9-0.4c0-0.9-1.4-1.7-1.4-1.7
					s3.4-0.3,2.8-1.7c-0.6-1.3-2.7-1-2.7-1s4.9-2.3,5-4.8l3.4-1L655.2,454.7z"/>
				<path class="st2" d="M700.9,402.6c4.6,5.4,11,45.3,6.8,53.2c-4.2,7.9-48.1,6.9-48.1,6.9l-7.1-9.8l41.7-8L700.9,402.6z"/>
				<polygon class="st7" points="674.3,448.6 694.2,444.8 694.2,424.2 692.4,443.5 				"/>
			</g>
		</g>
		<g>
			<g>
				<g>
					<rect x="529.6" y="457.7" class="st7" width="4.2" height="144.8"/>
				</g>
				<g>
					<rect x="422" y="446.6" class="st7" width="219.4" height="4.8"/>
				</g>
				<g>
					<rect x="498.2" y="597.1" class="st7" width="66.9" height="5.2"/>
				</g>
			</g>
			<g>
				<polygon class="st2" points="485.9,445.3 531.7,491.1 577.5,445.3 				"/>
			</g>
			<g>
				<g>
					<g>
						<path class="st2" d="M546.9,356.3c0,0,0.9,14.8-16.3,16.8C530.5,373.1,529.3,357.4,546.9,356.3z"/>
					</g>
				</g>
				<g>
					<path class="st2" d="M530.3,379.8c-0.5,0-0.9-0.4-0.9-0.9l-0.6-27.1c0-0.5,0.4-1,0.9-1c0.5,0,1,0.4,1,0.9l0.6,27.1
						C531.3,379.3,530.9,379.8,530.3,379.8C530.3,379.8,530.3,379.8,530.3,379.8z"/>
				</g>
				<g>
					<path class="st12" d="M533.5,391.1v-14h-6.8v14c-5.3,1-9.3,5.7-9.3,11.3v42.9h25.4v-42.9C542.9,396.8,538.9,392.2,533.5,391.1z
						"/>
				</g>
				<g>
					<g>
						<path class="st27" d="M530.1,354.8L530.1,354.8c-4,0-7.2-3.2-7.2-7.2v-6.2c0-1.3,1-2.3,2.3-2.3h9.8c1.3,0,2.3,1,2.3,2.3v6.2
							C537.2,351.6,534,354.8,530.1,354.8z"/>
					</g>
				</g>
			</g>
		</g>
		<circle class="st7" cx="246.6" cy="285.6" r="1.5"/>
		<circle class="st7" cx="253.8" cy="285.6" r="1.5"/>
		<path class="st22" d="M242.6,282.8c0,0,2.2-1.9,4.8-1.6"/>
		<path class="st22" d="M252.1,281.1c0,0,1.4-0.7,4.2,1"/>
	</g>
</g>
<g id="Capa_3" class="st28">
	
		<image style="display:inline;overflow:visible;opacity:0.1;" width="523" height="395" xlink:href="../../../../Desktop/Captura de pantalla 2024-09-24 a la(s) 5.18.53 p.m..png"  transform="matrix(1.4899 0 0 1.4899 -21.6168 27.2943)">
	</image>
</g>
</svg>
