<?xml version="1.0" encoding="utf-8"?>
<!-- Generator: Adobe Illustrator 25.0.1, SVG Export Plug-In . SVG Version: 6.00 Build 0)  -->
<svg version="1.1" xmlns="http://www.w3.org/2000/svg" xmlns:xlink="http://www.w3.org/1999/xlink" x="0px" y="0px"
	 viewBox="0 0 441.4 363.5" style="enable-background:new 0 0 441.4 363.5;" xml:space="preserve">
<style type="text/css">
	.st0{opacity:0.5;}
	.st1{fill:#FBF9F0;}
	.st2{fill:#FFAA2D;}
	.st3{fill:#FF5710;}
	.st4{fill:#F79A73;}
	.st5{fill:#84312E;}
	.st6{fill:#1ABB9C;}
	.st7{fill:#D5F4F5;}
	.st8{fill:#A8E1D8;}
	.st9{opacity:0.6;}
	.st10{fill:#C1F5EB;}
	.st11{fill:#D65D08;}
	.st12{fill:#FCF8F0;}
	.st13{fill:#494A8F;}
	.st14{fill:#FFFFFF;}
	.st15{fill-rule:evenodd;clip-rule:evenodd;fill:#FFFFFF;}
	.st16{fill-rule:evenodd;clip-rule:evenodd;fill:#3E5568;}
	.st17{fill:#3E5568;}
	.st18{display:none;}
</style>
<g id="OBJECTS">
	<g>
		<g>
			<g class="st0">
				<g>
					<path class="st1" d="M367,280.6c-5,3.7-11.4,7.6-11.5,14.3c0,2.3,0.8,4.5,1.6,6.5c5.9,14.8,13.2,29.1,16.8,44.8
						c1,4.2,1.7,8.5,2,12.8H53.1c-8.1-7.8-15.1-18.5-12.2-29.6c3.7-14.6,22.4-19.9,25.4-34.8c3-14.6-11-27.2-11.4-42.2
						c-0.3-9.6,5.5-18.5,12.9-23.5c7.4-5,16.2-6.7,24.8-7.5c11.7-1,23.6-0.3,35.1,2.1c13.1,2.6,26.2,7.4,39.3,5.6
						c5.2-0.7,10.4-2.5,14.6-6c5.5-4.7,8.7-12,10.9-19.3c6.2-20.1,7-42.5,17.2-60.4c13.2-23.2,40.2-33.5,64.8-30.6
						c24.6,2.9,47,17,66.6,33.7c19.2,16.3,37,36.5,44.3,62C392.9,234.1,387.1,265.7,367,280.6z"/>
				</g>
			</g>
			<g>
				<g>
					<g>
						<g>
							<g>
								<path class="st2" d="M382.2,229.7c-9.2,7.2-21.2,12.6-32.4,16.6c-3.2-12.2-6-24.4-8.1-36.8c8.7-1.8,18.3-5.1,27.3-11.2
									c13.7-9.3,31.9-43.7,36.4-52.6c0.2-0.5,0.5-0.9,0.7-1.4l0,0c0,0,3.5-9.3,4-10.8c1.2-3.5,2.6-12.3,2.6-12.3s2.6-0.9,3,5.1
									c0.4,5.9,1.5,4.2,1.5,4.2s10.7-16.2,13.8-15.5c1.1,0.3,0,3.9-1.9,6.1c-1.8,2.1-3.7,5.4-3.7,5.4s10.5-11.6,13.3-10.2
									c0,0,1.4,0.9-2,4.3c-4.6,4.8-7.7,9.1-7.7,9.1s10.6-9.2,12-8.5c2.3,1.2-8.5,10.6-10.1,13.9c0,0,7.9-7.5,8.4-5.4
									c0.4,2-8.6,9.9-12.8,20.5c-0.3,1-0.7,2.2-1.2,3.6c0,0,0,0,0,0S414.6,204.4,382.2,229.7z"/>
							</g>
							<g>
								<path d="M416.7,131.3c1.3,1,2.5,2.2,3.5,3.6c0.5,0.7,1,1.4,1.4,2.1c0.4,0.8,0.8,1.6,0.9,2.6l-1.3-0.5
									c0.7-0.6,1.3-0.9,2.1-1.2c0.7-0.3,1.5-0.4,2.3-0.3c0.8,0.1,1.5,0.3,2.2,0.6c0.7,0.3,1.2,0.8,1.7,1.3c-0.7-0.3-1.3-0.5-2-0.6
									c-0.7-0.2-1.3-0.2-1.9-0.1c-0.6,0.1-1.2,0.2-1.8,0.5c-0.6,0.3-1.1,0.6-1.5,1l-1.1,1l-0.2-1.5c-0.1-0.6-0.3-1.4-0.7-2
									c-0.3-0.7-0.7-1.4-1.1-2.1C418.3,134.2,417.5,132.8,416.7,131.3z"/>
							</g>
						</g>
						<g>
							<g>
								<g>
									<g>
										<path d="M302.4,172.3c0,8-5.8,14.5-13,14.5c-7.2,0-13-6.5-13-14.5c0-8,5.8-14.5,13-14.5
											C296.6,157.7,302.4,164.3,302.4,172.3z"/>
									</g>
									<g>
										<path d="M279.7,178c0,0,18.7-15.4,6.8-49.1C278.7,106.9,233.1,169.4,279.7,178z"/>
									</g>
								</g>
								<g>
									<g>
										<g>
											<path class="st2" d="M233.1,140c2.1-13.2,15.2-35.2,38.6-21.7c7.3,4.3,10.5,12.1,12,20.1c1,5.6-1,61.1-1,61.1
												c-2,22.2-35.3,27.5-36.5,0.4l1.4-18.5C230.6,176,230.7,154.8,233.1,140z"/>
										</g>
										<g>
											<path d="M247.5,181.4c0,0,9.5,3.2,27.6-8c0,0-10.1,14.8-28.4,20.9L247.5,181.4z"/>
										</g>
									</g>
									<g>
										<g>
											<path class="st2" d="M294.3,146.6c0.9,3.8-1.4,7.7-5.3,8.7c-3.8,0.9-7.7-1.4-8.7-5.3c-0.9-3.8,1.4-7.7,5.3-8.7
												C289.5,140.4,293.3,142.7,294.3,146.6z"/>
										</g>
										<g>
											<path d="M284,150.3c0.1-0.8,0.4-1.4,0.8-2c0.4-0.6,1.1-1.1,1.9-1.4c0.8-0.3,1.8-0.2,2.5,0.2c0.7,0.4,1.2,1,1.5,1.7
												c-0.7-0.2-1.3-0.5-1.9-0.5c-0.6-0.1-1,0-1.5,0.1C286.2,148.6,285.2,149.5,284,150.3z"/>
										</g>
									</g>
									<g>
										<g>
											<path d="M256.6,138.8c0.1,0.8,0.4,1.7,0.8,2.4c0.4,0.7,1,1.2,1.7,1.5c0.7,0.3,1.4,0.3,2.1-0.1c0.7-0.3,1.3-0.9,1.9-1.6
												l0,0c0.1-0.2,0.4-0.2,0.6-0.1c0.2,0.1,0.2,0.3,0.1,0.5c-0.4,0.9-1.1,1.7-2,2.3c-0.9,0.6-2.2,0.6-3.2,0.2
												c-1-0.4-1.8-1.2-2.3-2.2c-0.4-0.9-0.6-1.9-0.5-2.9c0-0.2,0.2-0.3,0.4-0.3C256.4,138.5,256.5,138.6,256.6,138.8
												L256.6,138.8z"/>
										</g>
										<g>
											<path d="M236.7,136.6c0,0.8,0.1,1.7,0.4,2.4c0.3,0.7,0.7,1.3,1.3,1.5c0.5,0.2,1.2-0.1,1.8-0.6c0.6-0.5,1.1-1.2,1.6-1.8
												l0,0c0.1-0.2,0.4-0.2,0.6-0.1c0.2,0.1,0.2,0.3,0.1,0.5c-0.4,0.9-0.8,1.7-1.5,2.4c-0.3,0.4-0.8,0.6-1.3,0.9
												c-0.5,0.2-1.1,0.3-1.7,0.1c-1.2-0.4-1.8-1.5-2-2.4c-0.2-1-0.2-1.9,0-2.8c0-0.2,0.2-0.3,0.4-0.3
												C236.6,136.3,236.7,136.4,236.7,136.6L236.7,136.6z"/>
										</g>
									</g>
								</g>
								<g>
									<path d="M238.1,126.3c0,0,14.2,3.1,33.5-7.9c0,0-7,37.5,11.7,24c0,0,2.6-2,5.4-1.2l0.7,0.2c0,0-0.4-21.9-16.1-27.3
										C257.7,108.7,246.6,111.2,238.1,126.3z"/>
								</g>
							</g>
							<g>
								<g>
									<g>
										<polygon class="st2" points="142.8,234.8 149.9,212.7 166.4,218.3 165.7,237.4 										"/>
									</g>
									<g>
										<g>
											<path class="st3" d="M400.9,151.7c0,0-19.9,40.3-37.1,48.3c-17.1,8-61.3-4.1-73.3-3.6l0,0l-7.8-0.2
												c-2.9,4.6-13.2,7.6-20.8,6.9c-10.7-1-14.4-5.6-15.4-9.2l-13.3-1l0,0c-6.5-0.6-17.4,0.7-27.5,11.2
												c-3.8,4-21.8,24.8-42.8,52l5.2-18.6l-28.6-3.5C117,277.4,127,311,140.5,311c23.3,0,59.8-34.7,79.8-55.8l5,54.4l77.2,2.6
												l-6.8-65.1c11,1.4,67.2,7.9,86.8-4.2c21.8-13.5,41.3-71.6,41.3-71.6L400.9,151.7z"/>
										</g>
										<g>
											<g>
												<path d="M157,276.2c-0.5-0.1,1.3-8.7,4.4-19c3.1-10.3,6.5-18.4,7-18.3c0.5,0.2-2,8.5-5.2,18.8
													C160.1,268,157.6,276.3,157,276.2z"/>
											</g>
										</g>
									</g>
									<g>
										<g>
											<path class="st4" d="M163.1,194.9c1.3-1.4,5.3-5.7,5.3-7.7c0-3.4-5.8,2.7-8.3,5.5C161.2,193.5,162.2,194.2,163.1,194.9z"
												/>
										</g>
										<g>
											<path class="st5" d="M138.7,166.8c0.8-1.8,3.2-2.2,4.6-0.8c6.2,6.6,20.2,23.3,27.2,34.6c10,16,16.6,26.6,16.6,26.6
												l29.2,25.2c0,0-12.3,6.8-23.3-3c-8.3-7.4-12.1-20.5-12.1-20.5s-25.4-45.6-41.4-58.8C138.5,169.3,138.2,168,138.7,166.8
												L138.7,166.8z"/>
										</g>
										<g>
											<g>
												<path class="st2" d="M150.2,224.2c-1.8-7.2-1.9-18.8-2-23.2c-0.1-3.8,2.4-5.5,4-6.4c6.6-3.8,20.1-6.6,20.6-4.7
													c0.4,1.6-11.2,5.3-11.2,5.3s14.5-2.4,11.6,0.9c-1.5,1.8-9.7,2.4-9.7,2.4s8.9,0.9,8.2,2.2c-1.2,2.3-8.5,2-8.5,2
													s3.5,2.9,4.5,10.4c0.7,5.4-10.4,16.2-10.4,16.2L150.2,224.2z"/>
											</g>
										</g>
										<g>
											<g>
												<path d="M156.4,204.3c-0.1-0.3,1.5-1,3.5-1.2c1-0.1,1.9-0.1,2.5-0.1c0.6,0,0.8-0.2,1-0.2c0.1,0,0.1,0.2,0,0.4
													c-0.1,0.2-0.4,0.5-0.7,0.6c-0.7,0.3-1.6,0.4-2.6,0.5C158.1,204.6,156.5,204.7,156.4,204.3z"/>
											</g>
										</g>
									</g>
								</g>
								<g>
									<g>
										<g>
											<path d="M357.2,219.1c-0.6,0-0.9-4.1-3-8.6c-2-4.5-5-7.4-4.6-7.8c0.2-0.2,1.1,0.3,2.4,1.5c1.3,1.2,2.8,3.1,3.9,5.5
												c1.1,2.4,1.6,4.8,1.7,6.6C357.7,218,357.5,219.1,357.2,219.1z"/>
										</g>
									</g>
									<g>
										<g>
											<path d="M366.4,210.4c-0.4,0.4-3-1.9-6.7-4.1c-3.7-2.2-7-3.3-6.8-3.9c0.1-0.5,3.8-0.1,7.8,2.3
												C364.6,207,366.8,210.1,366.4,210.4z"/>
										</g>
									</g>
								</g>
							</g>
						</g>
					</g>
					<g>
						<g>
							<g>
								<g>
									<path d="M305.1,313.9c0.1-0.1,1.1,0.8,3,2.4c1.9,1.5,4.7,3.7,8.6,5.6c1.9,0.9,4.2,1.8,6.4,1.3c1-0.2,2-0.9,2.6-1.8
										c0.6-0.9,0.6-1.9,0-2.8c-0.6-0.8-1.8-1.5-3.2-1.8c-1.3-0.4-3-0.5-4.5-0.7c-3.2-0.3-6.5-0.4-9.9-0.1l0-2.7
										c2.5,0.1,5.1,0.2,7.7,0.1c2-0.1,3.9-0.2,5.8-0.4c1.9-0.2,3.8-0.4,5.5-0.8c1.7-0.4,3.3-1,4.3-2c1-0.9,1.6-2.4,1.5-3.7
										c-0.1-1.3-0.8-2.1-2.1-2.5c-0.6-0.2-1.4-0.3-2.1-0.3c-0.8,0-1.5-0.1-2.2-0.1c-2.9,0-5.7,0.5-8.1,1.3
										c-4.8,1.5-8.3,3.9-10.5,5.7c-2.2,1.8-3.3,3.1-3.4,2.9c-0.1-0.1,0.7-1.5,2.7-3.7c2-2.1,5.5-4.9,10.6-6.7
										c2.5-0.9,5.4-1.6,8.6-1.7c0.8-0.1,1.6,0,2.4,0c0.8,0,1.7,0.1,2.6,0.3c0.9,0.2,1.9,0.7,2.7,1.6c0.8,0.8,1.2,1.9,1.3,3
										c0.2,2.1-0.6,4.3-2.2,5.8c-1.6,1.5-3.6,2.2-5.5,2.6c-2,0.4-3.8,0.6-5.8,0.8c-2,0.2-3.9,0.3-6,0.4c-2.7,0.1-5.4,0-7.9-0.1
										l0-2.7c3.6-0.3,7.1-0.2,10.4,0.2c1.7,0.2,3.3,0.4,4.9,0.9c1.6,0.5,3.3,1.2,4.5,2.8c0.6,0.8,0.9,1.8,0.8,2.8
										c0,1-0.4,1.9-0.9,2.6c-1,1.5-2.4,2.3-4,2.7c-1.5,0.3-3,0.1-4.2-0.3c-1.3-0.4-2.4-0.9-3.4-1.5c-4-2.2-6.7-4.7-8.5-6.4
										C305.7,315.1,305,314,305.1,313.9z"/>
								</g>
							</g>
						</g>
						<g>
							<g>
								<polygon points="225.3,306 219.5,355.1 334.4,355.1 302.6,308.6 								"/>
							</g>
							<g>
								<g>
									<polygon class="st1" points="225.3,306 302.8,308.4 305.9,314.1 275.3,314.6 290.5,355.1 219.5,355.1 									"/>
								</g>
							</g>
						</g>
					</g>
				</g>
				<g>
					<g>
						<rect x="47.7" y="355.2" class="st3" width="334.9" height="8.3"/>
					</g>
					<g>
						<g>
							<g>
								<rect x="150.8" y="346.8" width="137.3" height="8.7"/>
							</g>
							<g>
								<g>
									<g>
										<path d="M227.1,177.3c0.1,0-0.2,0.4-0.6,1.1c-0.2,0.4-0.5,0.8-0.8,1.3c-0.3,0.5-0.6,1.1-1,1.8c-1.5,2.8-3.4,7-4.2,12.6
											c-0.7,5.5-0.6,12.4,2.2,19.3c1.4,3.4,3.4,6.7,6,9.8c2.6,3.1,5.8,6.2,7.8,10.3c2,4.1,2.9,8.5,2.4,12.8
											c-0.3,2.1-0.9,4.3-2.1,6.1c-1.1,1.8-2.9,3.2-4.6,4.1c-1.7,0.9-3.5,1.6-5.1,2.3c-1.6,0.7-3.1,1.5-4.5,2.3
											c-2.8,1.7-5.2,3.6-7.2,5.6c-2,1.9-3.4,4-4,6.1c-0.6,2.1-0.1,4,0.7,5.3c0.8,1.3,1.8,2,2.5,2.3c0.7,0.3,1.2,0.4,1.2,0.4
											c0,0-0.5,0.1-1.3-0.1c-0.8-0.2-2.1-0.9-3-2.3c-0.9-1.4-1.6-3.5-1.1-5.9c0.5-2.4,2-4.7,4-6.8c2-2.1,4.5-4.2,7.4-6
											c1.4-0.9,3-1.8,4.7-2.5c1.6-0.8,3.3-1.4,4.9-2.3c1.6-0.9,3-2,3.9-3.6c1-1.5,1.5-3.4,1.7-5.3c0.4-3.9-0.5-8-2.3-11.8
											c-1.8-3.8-4.8-6.8-7.5-9.9c-2.7-3.2-4.8-6.7-6.2-10.4c-2.8-7.2-2.9-14.4-1.9-20.1c1-5.7,3.1-10,4.8-12.7
											c0.4-0.7,0.8-1.3,1.2-1.8c0.4-0.5,0.7-0.9,1-1.2C226.7,177.6,227,177.2,227.1,177.3z"/>
									</g>
								</g>
								<g>
									<g>
										<g>
											<path d="M163.7,300.9c0.2-0.2,1.6,2.9,3.6,8.2l0.4,1.2l-1.3-0.2c-3.9-0.7-8.6-2-13.6-4.2c-1.5-0.6-3.1-1.5-4-3.2
												c-0.4-0.8-0.7-1.8-0.5-2.7c0.2-0.9,0.8-1.8,1.5-2.3c0.7-0.5,1.6-0.7,2.4-0.7l0.6,0l0.5,0c0.3,0,0.6,0.1,0.9,0.1
												c1.3,0.1,2.5,0.4,3.5,0.8c2,0.7,3.5,1.4,4.6,2C163.3,300.5,163.8,300.8,163.7,300.9c-0.1,0.1-0.8,0-1.8-0.3
												c-1.2-0.4-2.8-0.8-4.7-1.4c-1-0.3-2-0.5-3.2-0.5c-0.3,0-0.6,0-0.9,0l-0.5,0l-0.4,0c-0.5,0-1,0.2-1.4,0.5
												c-0.8,0.6-1,1.7-0.4,2.7c0.6,1,1.8,1.7,3.2,2.3c4.8,2.1,9.5,3.6,13.1,4.4l-0.8,1C164.4,304.5,163.5,301.1,163.7,300.9z"
												/>
										</g>
									</g>
									<g>
										<g>
											<path d="M254,300.9c0.2,0.2-0.6,3.6-2.1,8.7l-0.8-1c3.6-0.9,8.3-2.3,13.1-4.4c0.4-0.2,0.7-0.3,1-0.5
												c0.3-0.1,0.6-0.3,0.9-0.5c0.5-0.4,1-0.8,1.3-1.3c0.6-1,0.4-2.1-0.4-2.7c-0.8-0.6-1.9-0.5-3.1-0.4
												c-1.2,0.2-2.3,0.4-3.3,0.6C256.6,300.4,254.1,301.2,254,300.9c-0.1-0.2,2.2-1.4,6.2-2.8c1-0.3,2.1-0.6,3.4-0.9
												c0.6-0.1,1.2-0.2,2-0.2c0.8,0,1.6,0.2,2.3,0.7c0.7,0.5,1.3,1.3,1.5,2.3c0.2,0.9-0.1,1.9-0.5,2.7c-0.9,1.6-2.6,2.5-4,3.1
												c-4.9,2.1-9.7,3.5-13.6,4.2l-1.3,0.2l0.4-1.2C252.4,303.8,253.8,300.7,254,300.9z"/>
										</g>
									</g>
									<g>
										<g>
											<g>
												<path class="st6" d="M239.2,346.9H180c-8.8,0-16-7.2-16-16v-38.5h91.2v38.5C255.2,339.7,248,346.9,239.2,346.9z"/>
											</g>
										</g>
										<g>
											<rect x="163.3" y="291.5" class="st7" width="92.3" height="1.9"/>
										</g>
									</g>
								</g>
							</g>
						</g>
						<g>
							<g>
								<g>
									<g>
										<rect x="83.8" y="270.3" class="st8" width="37.7" height="73"/>
									</g>
									<g class="st9">
										<rect x="86.3" y="293.4" class="st10" width="32.7" height="48.1"/>
									</g>
									<g>
										<g class="st9">
											<path class="st10" d="M88.3,318.7c-0.2,0-0.4-0.1-0.5-0.2c-0.4-0.3-0.4-0.8-0.2-1.2l28.4-37.2c0.3-0.4,0.8-0.4,1.2-0.2
												c0.4,0.3,0.4,0.8,0.2,1.2L89,318.4C88.8,318.6,88.5,318.7,88.3,318.7z"/>
										</g>
										<g class="st9">
											<path class="st10" d="M88.4,311c-0.2,0-0.4-0.1-0.5-0.2c-0.4-0.3-0.5-0.8-0.2-1.2l24.9-33.4c0.3-0.4,0.8-0.5,1.2-0.2
												c0.4,0.3,0.5,0.8,0.2,1.2l-24.9,33.4C88.9,310.9,88.6,311,88.4,311z"/>
										</g>
									</g>
								</g>
								<g>
									<g>
										<g>
											<path class="st6" d="M81.3,287.9c0,0-4.9-9.9-6.9-18.3c-1.1-4.9-6.2-26.6-8-23.9c-1.8,2.6,2,15.1,3.7,20.7
												c1.4,4.6,6.2,18.2,6.2,18.2s-14-27.5-18.3-28.1c-4.3-0.6,2.9,9.9,4.4,12.1c4.8,7.1,8,11.8,12.3,17.2
												c0,0-29.7-28.9-32.8-24.6c-3.1,4.3,11.3,10.3,18,15.3c5.1,3.8,16.3,13,16.3,13s-1.6-2.7-7.3-6.4
												c-8.7-5.7-23.7-12.5-24.6-9.6c-1.2,4,7.2,5.3,14.4,8.1c16.1,6.2,17.9,11.8,17.9,11.8L81.3,287.9z"/>
										</g>
										<g>
											<g>
												<path class="st3" d="M87.4,288.2c0,0-4.1-5.8-10.9-1c-6.8,4.8-2.5,13.4-0.4,15.7c2.1,2.4,21,21.9,23.6,26.7
													c2.5,4.8,11,17.5,13.8,16.5c2.8-1,0.7-4.3-0.5-12.6c-1.1-8.3-5-17.4-10-23.6C97.9,303.8,87.4,288.2,87.4,288.2z"/>
											</g>
											<g>
												<g>
													<g>
														<path class="st11" d="M96.3,301.4c-0.4-0.1-0.9,0.2-1.3,0.4c-0.4,0.2-0.7,0.4-1.1,0.6c-0.7,0.4-1.3,0.8-2,1.2
															c-1.3,0.8-2.7,1.7-4,2.5c-1,0.6-0.1,2.3,0.9,1.6c1.4-0.9,2.7-1.7,4.1-2.6c0.6-0.4,1.3-0.8,1.9-1.2
															c0.7-0.4,1.7-0.9,1.9-1.7C97,301.7,96.7,301.4,96.3,301.4L96.3,301.4z"/>
													</g>
												</g>
												<g>
													<g>
														<path class="st11" d="M103.2,311.3c-1.3,0.7-2.5,1.6-3.7,2.5c-0.6,0.4-1.2,0.8-1.9,1.3c-0.6,0.4-1.3,0.8-1.9,1.4
															c-0.7,0.7,0.2,1.8,1.1,1.4c0.6-0.3,1.2-0.8,1.8-1.2c0.6-0.4,1.3-0.9,1.9-1.3c1.3-0.9,2.6-1.7,3.7-2.7
															C104.9,311.9,104,310.9,103.2,311.3L103.2,311.3z"/>
													</g>
												</g>
												<g>
													<g>
														<path class="st11" d="M109.8,323.7c-0.6,0.1-1.1,0.6-1.7,0.9c-0.5,0.3-0.9,0.6-1.4,0.9c-0.5,0.3-0.9,0.6-1.4,0.9
															c-0.5,0.4-1.1,0.7-1.6,1.1c-0.3,0.3-0.3,0.9-0.1,1.2c0.3,0.4,0.8,0.4,1.2,0.2c0.5-0.3,1-0.7,1.5-1
															c0.5-0.3,0.9-0.6,1.4-0.9c0.5-0.3,0.9-0.6,1.4-0.9c0.6-0.4,1.2-0.7,1.6-1.3c0.2-0.2,0.1-0.6-0.1-0.8
															C110.3,323.7,110,323.7,109.8,323.7L109.8,323.7z"/>
													</g>
												</g>
											</g>
										</g>
									</g>
									<g>
										<g>
											<g>
												<path class="st6" d="M125.3,346.6c0,0,25.2-25.2,8.4-27.3c-16.8-2.1-25.2,13.3-25.2,13.3s18.2-24.5,2.1-27.3
													c-16.1-2.8-13.3,44.1-13.3,44.1L125.3,346.6z"/>
											</g>
											<g>
												<path class="st6" d="M97.7,344.5c0,0,7.7-45.4-11.2-44.1c-18.9,1.4-13.3,21.7-13.3,21.7s-6.3-27.3-18.2-20.3
													c-11.9,7,5.6,28.7,5.6,28.7s-23.8-11.2-20.3-1.4c3.5,9.8,23.8,20.3,23.8,20.3L97.7,344.5z"/>
											</g>
										</g>
										<g>
											<path class="st5" d="M65.2,356.1h54.1c7.8,0,14.1-6.3,14.1-14.1l0,0H51.2l0,0C51.2,349.8,57.5,356.1,65.2,356.1z"/>
										</g>
									</g>
								</g>
							</g>
							<g id="XMLID_00000169532703904296684950000013005817516384504476_">
								<g id="XMLID_00000045577246903895403390000000958951327080524206_">
									<g id="XMLID_00000083784681136156227940000002829095712236806288_">
										<g id="XMLID_00000080191012446553001880000007568107424405894281_">
											<path class="st12" d="M78.3,344.8c0-5.4,4.4-16.2,9.8-16.2c5.4,0,9.8,10.8,9.8,16.2c0,5.4-4.4,9.8-9.8,9.8
												C82.7,354.7,78.3,350.2,78.3,344.8z"/>
										</g>
									</g>
									<g id="XMLID_00000015322823429204199760000001644375727956346757_">
										<g id="XMLID_00000102525802266733055140000016254479091027486634_">
											<path class="st12" d="M101.7,344.8c0-5.4,4.4-16.2,9.8-16.2c5.4,0,9.8,10.8,9.8,16.2c0,5.4-4.4,9.8-9.8,9.8
												C106.1,354.7,101.7,350.2,101.7,344.8z"/>
										</g>
									</g>
									<g id="XMLID_00000111153327503337533210000001502425228093373597_">
										<g id="XMLID_00000089571156365230444970000017341073690589558971_">
											<path class="st12" d="M125,344.8c0-5.4,4.4-16.2,9.8-16.2c5.4,0,9.8,10.8,9.8,16.2c0,5.4-4.4,9.8-9.8,9.8
												C129.4,354.7,125,350.2,125,344.8z"/>
										</g>
									</g>
									<g id="XMLID_00000040540810598864910130000006977735334962598299_">
										<g id="XMLID_00000043437811173150542780000011223752200753793962_">
											<path class="st13" d="M145.4,341.6H77.6c-1.7,0-3.1,1.4-3.1,3.1c0,1.1,0,2.1,0,3.2c0,0.5,0,1,0,1.5c0,1.1,1.3,0.7,2,0.7
												c0.9,0,1.6,0.6,1.8,1.4c0.6,2.6,2.9,4.4,5.6,4.4h8.3c2.7,0,5-1.8,5.6-4.4c0.2-0.8,1-1.4,1.8-1.4h0.1
												c0.9,0,1.6,0.6,1.8,1.4c0.6,2.6,2.9,4.4,5.6,4.4h8.3c2.7,0,5-1.8,5.6-4.4c0.2-0.8,1-1.4,1.8-1.4h0.1
												c0.9,0,1.6,0.6,1.8,1.4c0.6,2.6,2.9,4.4,5.6,4.4h8.3c2.7,0,5-1.8,5.6-4.4c0.2-0.8,1-1.4,1.8-1.4c0.5,0,1.1,0,1.6,0
												c0.2,0,0.4,0,0.4-0.3c0-0.6,0-1.7,0-2.3c0-1,0-1.9,0-2.9C148.5,343,147.2,341.6,145.4,341.6z"/>
										</g>
									</g>
								</g>
								<g id="XMLID_00000171703567904598012520000005739166151415604889_">
									<g id="XMLID_00000065781358581126145220000000258592482290435979_">
										<g id="XMLID_00000062877461369613210180000005792704793237188491_">
											<path class="st14" d="M77.8,348.4c22.6-0.5,45.2-0.1,67.7-0.6c0.7,0,0.7-1.1,0-1c-22.6,0.5-45.2,0.1-67.7,0.6
												C77.2,347.4,77.2,348.4,77.8,348.4L77.8,348.4z"/>
										</g>
									</g>
								</g>
							</g>
						</g>
					</g>
				</g>
			</g>
		</g>
		<g>
			<path d="M245.4,152.4c-0.1,0-0.3,0-0.4-0.1l-2.2-1.7c-0.2-0.2-0.5-0.4-0.7-0.8c-0.2-0.4-0.2-0.9,0-1.4c0.4-1.2,1.4-1.8,2.3-2.5
				c0.3-0.2,0.5-0.4,0.8-0.6c1.8-1.5,2.7-3.6,3.1-5.1c0.6-2,0.7-4.2,0.9-6.3c0-0.4,0.3-0.6,0.7-0.6c0.4,0,0.6,0.3,0.6,0.7
				c-0.2,2.2-0.3,4.4-0.9,6.5c-0.7,2.5-1.9,4.5-3.5,5.8c-0.3,0.2-0.6,0.4-0.9,0.6c-0.8,0.6-1.6,1.1-1.9,1.9
				c-0.1,0.2-0.1,0.3-0.1,0.4c0,0.1,0.2,0.2,0.3,0.3l2.2,1.7c0.3,0.2,0.3,0.6,0.1,0.9C245.7,152.3,245.6,152.4,245.4,152.4z"/>
		</g>
		<g>
			<path d="M250.3,161.1c-2.2,0-4.2-0.9-5.5-2.4c-0.2-0.3-0.2-0.7,0.1-0.9c0.3-0.2,0.7-0.2,0.9,0.1c1.1,1.4,3.2,2.1,5.3,1.9
				c1.8-0.2,3.7-1,5.7-2.5c0.3-0.2,0.7-0.1,0.9,0.1c0.2,0.3,0.1,0.7-0.1,0.9c-2.1,1.6-4.2,2.5-6.3,2.7
				C250.9,161,250.6,161.1,250.3,161.1z"/>
		</g>
		<g>
			<path d="M266.5,136c-0.2,0-0.3-0.1-0.5-0.2c-2.4-2.3-5.7-3.6-9.1-3.5c0,0,0,0,0,0c-0.4,0-0.6-0.3-0.7-0.6c0-0.4,0.3-0.7,0.6-0.7
				c3.7-0.1,7.4,1.3,10,3.9c0.3,0.2,0.3,0.7,0,0.9C266.8,135.9,266.7,136,266.5,136z"/>
		</g>
		<g>
			<path d="M235.8,132.3c-0.2,0-0.4-0.1-0.5-0.2c-0.2-0.3-0.2-0.7,0.1-0.9c2.3-1.8,5.8-0.9,8.4-0.3l0.5,0.1c0.4,0.1,0.6,0.4,0.5,0.8
				c-0.1,0.4-0.4,0.6-0.8,0.5l-0.5-0.1c-2.3-0.6-5.5-1.4-7.3,0C236.1,132.3,236,132.3,235.8,132.3z"/>
		</g>
		<g>
			<g>
				
					<rect x="237.4" y="65.1" transform="matrix(0.2541 -0.9672 0.9672 0.2541 123.6705 331.2795)" class="st15" width="78.5" height="40.7"/>
			</g>
		</g>
		<g>
			<g>
				<g>
					
						<rect x="235.2" y="62.2" transform="matrix(0.2541 -0.9672 0.9672 0.2541 125.2155 329.4089)" class="st15" width="82" height="42.5"/>
				</g>
			</g>
			<g>
				<g>
					<path class="st15" d="M241.4,43.1c3.1-11.7,15.1-18.7,26.8-15.7c0.1,0,0.2,0.1,0.3,0.1c4.3-9.6,15.1-15,25.6-12.3
						c10.5,2.8,17.3,12.8,16.3,23.3c0.1,0,0.2,0,0.3,0.1c11.7,3.1,18.7,15.1,15.7,26.8c-3.1,11.7-15.1,18.7-26.8,15.7
						c-3.6-0.9-6.7-2.7-9.2-5l-13.1,50.1l-1.6-0.4l13.4-51c-3.7-4-5.8-9.3-5.8-14.8l-16.5,63.5l-1.6-0.4L281.4,60
						c-3.1,5.1-8.1,8.7-13.8,10l-13.1,50.1l-1.6-0.4l12.9-49.3c-2.9,0.4-5.8,0.3-8.8-0.5C245.3,66.8,238.3,54.8,241.4,43.1z"/>
				</g>
			</g>
		</g>
		<g>
			<g>
				<path d="M256.6,112.2c-0.1,0-0.1,0-0.2,0c-0.3-0.1-0.6-0.4-0.5-0.8l8.9-34c0.1-0.4,0.5-0.6,0.8-0.5c0.3,0.1,0.6,0.4,0.5,0.8
					l-8.9,34C257.2,112,256.9,112.2,256.6,112.2z"/>
			</g>
		</g>
		<g>
			<g>
				<path d="M267.5,115.7c-0.1,0-0.1,0-0.2,0c-0.3-0.1-0.6-0.4-0.5-0.8l8.9-34c0.1-0.4,0.5-0.6,0.8-0.5c0.3,0.1,0.6,0.4,0.5,0.8
					l-8.9,34C268,115.5,267.7,115.7,267.5,115.7z"/>
			</g>
		</g>
		<g>
			<g>
				<path d="M279.4,118.1c-0.1,0-0.1,0-0.2,0c-0.3-0.1-0.6-0.4-0.5-0.8l8.9-34c0.1-0.4,0.4-0.6,0.8-0.5c0.3,0.1,0.6,0.4,0.5,0.8
					l-8.9,34C280,117.9,279.7,118.1,279.4,118.1z"/>
			</g>
		</g>
	</g>
	<rect class="st14" width="163.6" height="7"/>
	<g>
		<path class="st16" d="M22.1,101.5l3.1-94.8c0-2.3-1.8-4.2-4-4.2S17,4.2,17,6.5l-0.7,94.9c-5.5,1.5-9.7,7.3-9.9,14.4
			c-0.2,8.3,5.3,15.1,12.1,15.3c6.9,0.1,12.6-6.5,12.8-14.8C31.5,109.2,27.6,103.1,22.1,101.5z M21.2,5.3c1.4,0,2.5,1.2,2.5,2.6
			c0,1.4-1.2,2.5-2.6,2.5c-1.4,0-2.5-1.2-2.5-2.6C18.6,6.3,19.8,5.2,21.2,5.3z"/>
	</g>
	<g>
		<path class="st16" d="M109.1,62.4l2.2-56.2c0-1.4-1-2.5-2.4-2.5c-1.4,0-2.5,1-2.5,2.4l-0.7,56.3c-3.3,0.8-5.8,4.3-5.9,8.5
			c-0.1,4.9,3.1,9,7.2,9.1c4.1,0.1,7.5-3.8,7.6-8.7C114.6,67,112.3,63.4,109.1,62.4z M108.8,5.3c0.8,0,1.5,0.7,1.5,1.5
			c0,0.8-0.7,1.5-1.5,1.5c-0.8,0-1.5-0.7-1.5-1.5C107.3,6,107.9,5.3,108.8,5.3z"/>
	</g>
	<g>
		<path class="st16" d="M69.7,88.1L68.2,6.2c-0.1-2-1.7-3.5-3.7-3.5c-2,0.1-3.5,1.7-3.5,3.7l3.7,81.8c-8.9,1.5-15.6,9.4-15.3,18.7
			c0.3,10.1,8.8,18.1,19,17.8c10.1-0.3,18.1-8.8,17.8-19C85.8,96.5,78.7,89,69.7,88.1z M59.8,115.7c-0.7,0-1.3-0.5-1.3-1.2
			c0-0.7,0.5-1.3,1.2-1.3c0.7,0,1.3,0.5,1.3,1.2C61.1,115.1,60.5,115.7,59.8,115.7z M59.7,111.6c-0.7,0-1.3-0.5-1.3-1.2
			c0-0.7,0.5-1.3,1.2-1.3c0.7,0,1.3,0.5,1.3,1.2C60.9,111,60.4,111.6,59.7,111.6z M59.5,107c-0.7,0-1.3-0.5-1.3-1.2
			c0-0.7,0.5-1.3,1.2-1.3c0.7,0,1.3,0.5,1.3,1.2C60.8,106.4,60.2,107,59.5,107z M59.4,102.9c-0.7,0-1.3-0.5-1.3-1.2
			c0-0.7,0.5-1.3,1.2-1.3c0.7,0,1.3,0.5,1.3,1.2C60.7,102.3,60.1,102.8,59.4,102.9z M59.3,98.8c-0.7,0-1.3-0.5-1.3-1.2
			c0-0.7,0.5-1.3,1.2-1.3c0.7,0,1.3,0.5,1.3,1.2C60.5,98.1,60,98.7,59.3,98.8z M63.9,115.6c-0.7,0-1.3-0.5-1.3-1.2
			c0-0.7,0.5-1.3,1.2-1.3c0.7,0,1.3,0.5,1.3,1.2C65.2,115,64.6,115.6,63.9,115.6z M63.8,111.5c-0.7,0-1.3-0.5-1.3-1.2
			c0-0.7,0.5-1.3,1.2-1.3c0.7,0,1.3,0.5,1.3,1.2C65,110.9,64.5,111.4,63.8,111.5z M63.6,106.8c-0.7,0-1.3-0.5-1.3-1.2
			c0-0.7,0.5-1.3,1.2-1.3c0.7,0,1.3,0.5,1.3,1.2C64.9,106.2,64.3,106.8,63.6,106.8z M63.5,102.7c-0.7,0-1.3-0.5-1.3-1.2
			c0-0.7,0.5-1.3,1.2-1.3c0.7,0,1.3,0.5,1.3,1.2C64.8,102.1,64.2,102.7,63.5,102.7z M63.4,98.6c-0.7,0-1.3-0.5-1.3-1.2
			c0-0.7,0.5-1.3,1.2-1.3c0.7,0,1.3,0.5,1.3,1.2C64.6,98,64.1,98.6,63.4,98.6z M68,115.4c-0.7,0-1.3-0.5-1.3-1.2
			c0-0.7,0.5-1.3,1.2-1.3c0.7,0,1.3,0.5,1.3,1.2C69.3,114.8,68.7,115.4,68,115.4z M67.9,111.3c-0.7,0-1.3-0.5-1.3-1.2
			c0-0.7,0.5-1.3,1.2-1.3c0.7,0,1.3,0.5,1.3,1.2C69.2,110.7,68.6,111.3,67.9,111.3z M67.7,106.7c-0.7,0-1.3-0.5-1.3-1.2
			c0-0.7,0.5-1.3,1.2-1.3c0.7,0,1.3,0.5,1.3,1.2C69,106.1,68.5,106.7,67.7,106.7z M67.6,102.6c-0.7,0-1.3-0.5-1.3-1.2
			c0-0.7,0.5-1.3,1.2-1.3c0.7,0,1.3,0.5,1.3,1.2C68.9,102,68.3,102.6,67.6,102.6z M67.5,98.5c-0.7,0-1.3-0.5-1.3-1.2
			c0-0.7,0.5-1.3,1.2-1.3c0.7,0,1.3,0.5,1.3,1.2C68.7,97.9,68.2,98.5,67.5,98.5z M64.7,9.6c-1.2,0-2.2-0.9-2.3-2.1
			c0-1.2,0.9-2.2,2.1-2.3c1.2,0,2.2,0.9,2.3,2.1C66.8,8.6,65.9,9.6,64.7,9.6z M72.1,115.3c-0.7,0-1.3-0.5-1.3-1.2
			c0-0.7,0.5-1.3,1.2-1.3c0.7,0,1.3,0.5,1.3,1.2C73.4,114.7,72.8,115.3,72.1,115.3z M72,111.2c-0.7,0-1.3-0.5-1.3-1.2
			c0-0.7,0.5-1.3,1.2-1.3c0.7,0,1.3,0.5,1.3,1.2C73.3,110.6,72.7,111.2,72,111.2z M71.9,106.6c-0.7,0-1.3-0.5-1.3-1.2
			c0-0.7,0.5-1.3,1.2-1.3c0.7,0,1.3,0.5,1.3,1.2C73.1,106,72.6,106.6,71.9,106.6z M71.7,102.5c-0.7,0-1.3-0.5-1.3-1.2
			c0-0.7,0.5-1.3,1.2-1.3c0.7,0,1.3,0.5,1.3,1.2C73,101.9,72.4,102.5,71.7,102.5z M71.6,98.4c-0.7,0-1.3-0.5-1.3-1.2
			c0-0.7,0.5-1.3,1.2-1.3c0.7,0,1.3,0.5,1.3,1.2C72.9,97.8,72.3,98.3,71.6,98.4z M76.2,115.2c-0.7,0-1.3-0.5-1.3-1.2
			c0-0.7,0.5-1.3,1.2-1.3c0.7,0,1.3,0.5,1.3,1.2C77.5,114.6,76.9,115.2,76.2,115.2z M76.1,111.1c-0.7,0-1.3-0.5-1.3-1.2
			c0-0.7,0.5-1.3,1.2-1.3c0.7,0,1.3,0.5,1.3,1.2C77.4,110.5,76.8,111.1,76.1,111.1z M76,106.5c-0.7,0-1.3-0.5-1.3-1.2
			c0-0.7,0.5-1.3,1.2-1.3c0.7,0,1.3,0.5,1.3,1.2C77.2,105.8,76.7,106.4,76,106.5z M75.8,102.3c-0.7,0-1.3-0.5-1.3-1.2
			c0-0.7,0.5-1.3,1.2-1.3c0.7,0,1.3,0.5,1.3,1.2C77.1,101.7,76.5,102.3,75.8,102.3z M75.7,98.2c-0.7,0-1.3-0.5-1.3-1.2
			c0-0.7,0.5-1.3,1.2-1.3c0.7,0,1.3,0.5,1.3,1.2C77,97.6,76.4,98.2,75.7,98.2z"/>
	</g>
	<g>
		<g>
			<path class="st16" d="M152.7,97.5l-2.1-91.7c-0.1-2.2-1.9-3.9-4.1-3.8c-2.2,0.1-3.9,1.9-3.8,4.1l4.5,91.6 M146.6,4.7
				c1.4,0,2.5,1,2.5,2.4c0,1.4-1,2.5-2.4,2.5c-1.4,0-2.5-1-2.5-2.4C144.2,5.9,145.3,4.8,146.6,4.7z"/>
			<path class="st17" d="M155.8,95.9L144,96.3c-1.7,0.1-3,1.5-3,3.2l0.6,15.9c0.1,1.6,1.3,2.9,2.9,3l-0.5-13.8
				c0-0.9,0.6-1.6,1.4-1.6c0.8,0,1.5,0.6,1.5,1.5l0.5,13.8l1.8-0.1l-0.5-13.8c0-0.9,0.6-1.6,1.4-1.6c0.8,0,1.5,0.6,1.5,1.5l0.5,13.8
				l1.8-0.1l-0.5-13.8c0-0.9,0.6-1.6,1.4-1.6c0.8,0,1.5,0.6,1.5,1.5l0.5,13.8c1.6-0.2,2.8-1.6,2.7-3.2L159,98.9
				C158.9,97.2,157.5,95.9,155.8,95.9z"/>
		</g>
	</g>
</g>
<g id="Capa_2" class="st18">
	
		<image style="display:inline;overflow:visible;opacity:0.2;" width="409" height="339" xlink:href="../../../../Desktop/Captura de pantalla 2024-09-24 a la(s) 8.05.01 p.m..png"  transform="matrix(1.2249 0 0 1.2249 -35.2038 -35.9332)">
	</image>
</g>
</svg>
