<?xml version="1.0" encoding="utf-8"?>
<!-- Generator: Adobe Illustrator 25.0.1, SVG Export Plug-In . SVG Version: 6.00 Build 0)  -->
<svg version="1.1" id="OBJECTS" xmlns="http://www.w3.org/2000/svg" xmlns:xlink="http://www.w3.org/1999/xlink" x="0px" y="0px"
	 viewBox="0 0 240 240" style="enable-background:new 0 0 240 240;" xml:space="preserve">
<style type="text/css">
	.st0{fill:#FFFFFF;}
	.st1{clip-path:url(#SVGID_2_);}
	.st2{fill:#E8935D;}
	.st3{fill:#FF5710;}
	.st4{fill:#001A2D;}
	.st5{fill:#FFAA2D;}
</style>
<g>
	<g>
		<circle class="st0" cx="120" cy="120.6" r="118.2"/>
		<path d="M120,240C54.2,240,0.6,186.4,0.6,120.6C0.6,54.8,54.2,1.2,120,1.2c65.8,0,119.4,53.6,119.4,119.4
			C239.4,186.4,185.8,240,120,240z M120,3.6C55.5,3.6,3,56.1,3,120.6s52.5,117,117,117s117-52.5,117-117S184.5,3.6,120,3.6z"/>
	</g>
	<g>
		<defs>
			<ellipse id="SVGID_1_" cx="120" cy="118.7" rx="118.2" ry="118.7"/>
		</defs>
		<clipPath id="SVGID_2_">
			<use xlink:href="#SVGID_1_"  style="overflow:visible;"/>
		</clipPath>
		<g class="st1">
			<g>
				<path class="st2" d="M183.4,424.4c1.8,0,2.8-19,2.8-19s2.8,19.7,5,19.6c2.2-0.2,0.4-21.3,0.4-21.3s6.1,18.3,8.4,17.8
					c2.3-0.5-3.8-19.9-3.8-19.9s7.8,12.8,8.7,10.1S192,384.4,192,384.4l-15.7,2.1c0,0-9.4,12.5-6.5,13.8"/>
			</g>
			<g>
				<g>
					<path class="st3" d="M169.6,163.9c16.5,10.7,27.6,220.1,27.6,220.1l-27.6,3.7l-22.7-162.4L169.6,163.9z"/>
				</g>
				<g>
					<path class="st3" d="M107.3,145.9c-16.3,0.9-50.6,15.6-56.9,22.4L24.9,280.9c0,0,29.3,7.8,27.3,35.1
						c-0.7,9.3-1.1,14.4-1.1,14.4h110.2c0,0,0.5-8.4,0.6-15.4c0.3-29.8,2.9-112.5,2.9-112.5l4.7-38.7
						C169.6,163.9,145.7,143.7,107.3,145.9z"/>
				</g>
				<g>
					<g>
						<path class="st4" d="M139.7,62.7c0,0,6.5,12.8,5.1,25.7c-1.4,12.9-12.8-25.9-12.8-25.9L139.7,62.7z"/>
					</g>
					<g>
						<g>
							<path class="st5" d="M103.2,151.1l-11-37.2c0,0-14.3,6.8-16.8-5.2C73.2,98,84.8,95.8,91,100.3c0,0-14.4-36.7,17.9-43.4
								c32.3-6.7,37.6,38.1,38.9,49c2.3,19.1-10.3,29.8-20.1,31.8l2.1,11.6c0,0,1.9,10.2-7.6,11.6
								C109.5,163,103.2,151.1,103.2,151.1z"/>
						</g>
					</g>
					<g>
						<g>
							<path class="st5" d="M143.5,95c0,0,12.6-10.5,16.4,2c4.2,13.8-15.5,11.8-15.5,11.8L143.5,95z"/>
						</g>
					</g>
					<g>
						<g>
							<path class="st4" d="M131.8,89.9c-0.1,2,1.5,3.6,3.4,3.6c1.9,0.1,3.6-1.5,3.6-3.4c0.1-2-1.5-3.6-3.4-3.6
								C133.4,86.5,131.8,88,131.8,89.9z"/>
						</g>
					</g>
					<g>
						<g>
							<path class="st4" d="M115.7,92c-0.1,2,1.5,3.6,3.4,3.6c1.9,0.1,3.6-1.5,3.6-3.4c0.1-2-1.5-3.6-3.4-3.6
								C117.4,88.6,115.8,90.1,115.7,92z"/>
						</g>
					</g>
					<g>
						<g>
							<path class="st4" d="M125.1,113.9c2.9,0,5.8-1,8.1-2.8c0.4-0.4,0.5-1,0.2-1.4c-0.4-0.4-1-0.5-1.4-0.2
								c-2.1,1.7-4.9,2.5-7.5,2.3c-2.7-0.2-5.3-1.4-7.2-3.3c-0.4-0.4-1.1-0.4-1.4,0c-0.4,0.4-0.4,1,0,1.5c2.2,2.3,5.3,3.7,8.5,3.9
								C124.5,113.9,124.8,113.9,125.1,113.9z"/>
						</g>
					</g>
					<g>
						<g>
							<path class="st4" d="M147.3,106.5C147.3,106.5,147.3,106.5,147.3,106.5c0.6,0,1-0.5,1-1c0-3.1-0.4-6.3-1-9.3
								c-0.1-0.6-0.6-0.9-1.2-0.8c-0.6,0.1-0.9,0.7-0.8,1.2c0.6,2.9,0.9,5.9,1,8.9C146.3,106,146.8,106.5,147.3,106.5z"/>
						</g>
					</g>
					<g>
						<g>
							<path class="st4" d="M147.5,101.3c0.1,0,0.2,0,0.3,0l4.6-1.2c0.5-0.1,0.9-0.7,0.7-1.3c-0.1-0.5-0.7-0.9-1.2-0.7l-4.6,1.2
								c-0.5,0.1-0.9,0.7-0.7,1.3C146.6,101,147,101.3,147.5,101.3z"/>
						</g>
					</g>
					<g>
						<g>
							<path class="st4" d="M89.1,109.3c0.1,0,0.1,0,0.2,0c0.6-0.1,0.9-0.7,0.8-1.2c-0.4-2.2-2-4.2-4-5.1c-2-0.9-4.5-0.8-6.4,0.4
								c-0.5,0.3-0.6,0.9-0.4,1.4c0.3,0.5,0.9,0.6,1.4,0.4c1.4-0.8,3.1-0.9,4.6-0.3c1.4,0.6,2.5,2,2.9,3.6
								C88.2,109,88.7,109.3,89.1,109.3z"/>
						</g>
					</g>
					<g>
						<g>
							<path class="st4" d="M84.6,108.7c0.3,0,0.7-0.2,0.9-0.5l1.8-3c0.3-0.5,0.1-1.1-0.4-1.4c-0.5-0.3-1.1-0.1-1.4,0.4l-1.8,3
								c-0.3,0.5-0.1,1.1,0.4,1.4C84.2,108.6,84.4,108.7,84.6,108.7z"/>
						</g>
					</g>
					<g>
						<path class="st4" d="M72.3,84.9c2.5,4.7,5,9.7,8.5,13.6c5.8-1.3,11,3.6,12.6,6c0,0,2.8,9,1.9-6.2c-0.9-15.2-1.2-17.7-1.2-17.7
							s12.7,1.1,17-7.4c0,0,7.3,5.8,23.3,2.1l-7.1-6c0,0,10.3,6.9,22.5-1.2c12.2-8.1-18.1-38.6-22.5-37.2c-4.4,1.4-2.3,8.3-2.3,8.3
							s-13-7.1-16.9-4c-3.9,3.1,2.7,11.4,2.7,11.4s-12.7-2.1-16.7,0.2c-4,2.4,1.4,7.6,1.4,7.6s-23.8,6.5-19.1,21
							C76.4,75.3,67.9,76.6,72.3,84.9z"/>
					</g>
					<g>
						<g>
							<path class="st4" d="M106.2,84.8c0.2,0,0.4-0.1,0.6-0.2c2.8-2.2,6.8-2.8,10.1-1.5c0.5,0.2,1.1,0,1.3-0.6
								c0.2-0.5,0-1.1-0.6-1.3c-4-1.6-8.8-0.9-12.1,1.8c-0.4,0.4-0.5,1-0.2,1.4C105.6,84.7,105.9,84.8,106.2,84.8z"/>
						</g>
					</g>
					<g>
						<g>
							<path class="st4" d="M127.3,83.2c0.3,0,0.6-0.1,0.8-0.4c2.2-2.6,6.4-3.1,9.1-1.1c0.5,0.3,1.1,0.2,1.4-0.2
								c0.3-0.5,0.2-1.1-0.2-1.4c-3.6-2.7-9.1-2-11.9,1.5c-0.4,0.4-0.3,1.1,0.1,1.4C126.8,83.1,127,83.2,127.3,83.2z"/>
						</g>
					</g>
					<g>
						<path class="st4" d="M127.8,137.8c-6.4,1.8-19.6-2.8-19.6-2.8s8.8,8.4,20.7,8.7L127.8,137.8z"/>
					</g>
				</g>
			</g>
			<g>
				<g>
					<path class="st4" d="M128,106.9c0.1,0,0.2,0,0.4-0.1l3.1-1.2c0.3-0.1,0.5-0.4,0.6-0.7c0.1-0.3,0-0.7-0.2-0.9l-3.7-4.2l-2.2-9.2
						c-0.1-0.6-0.7-0.9-1.2-0.8c-0.6,0.1-0.9,0.7-0.8,1.2l2.3,9.4c0,0.2,0.1,0.3,0.2,0.4l2.9,3.3l-1.7,0.7c-0.5,0.2-0.8,0.8-0.6,1.3
						C127.2,106.6,127.6,106.9,128,106.9z"/>
				</g>
			</g>
		</g>
	</g>
</g>
</svg>
