<?xml version="1.0" encoding="utf-8"?>
<!-- Generator: Adobe Illustrator 25.0.1, SVG Export Plug-In . SVG Version: 6.00 Build 0)  -->
<svg version="1.1" id="OBJECTS" xmlns="http://www.w3.org/2000/svg" xmlns:xlink="http://www.w3.org/1999/xlink" x="0px" y="0px"
	 viewBox="0 0 240 240" style="enable-background:new 0 0 240 240;" xml:space="preserve">
<style type="text/css">
	.st0{fill:#FFFFFF;}
	.st1{clip-path:url(#SVGID_2_);}
	.st2{fill:#1ABB9C;}
	.st3{fill:#001A2D;}
	.st4{fill:#FF5710;}
	.st5{fill:#FFAA2D;}
</style>
<g>
	<g>
		<circle class="st0" cx="120" cy="120.6" r="118.2"/>
		<path d="M120,240C54.2,240,0.6,186.4,0.6,120.6C0.6,54.8,54.2,1.2,120,1.2c65.8,0,119.4,53.6,119.4,119.4
			C239.4,186.4,185.8,240,120,240z M120,3.6C55.5,3.6,3,56.1,3,120.6s52.5,117,117,117s117-52.5,117-117S184.5,3.6,120,3.6z"/>
	</g>
	<g>
		<defs>
			<ellipse id="SVGID_1_" cx="120" cy="118.7" rx="118.2" ry="118.7"/>
		</defs>
		<clipPath id="SVGID_2_">
			<use xlink:href="#SVGID_1_"  style="overflow:visible;"/>
		</clipPath>
		<g class="st1">
			<g>
				<g>
					<path class="st2" d="M174.9,156.5l35.3,56.3l64.2-17.6l7.3,24.1c0,0-64.9,25.4-86.1,18.8c-21.2-6.6-81.1-92.8-75.3-107.6
						c2.2-5.5,22,2.6,35.4,8.9C163.6,143.2,170.2,149.1,174.9,156.5z"/>
				</g>
				<g>
					<path class="st3" d="M160.8,206.6l0.4-15.1c0,0,6.8-15.6,4.8-24.4c0,0,5.5,15.5-0.7,24.6l1.1,20.2L160.8,206.6z"/>
				</g>
				<g>
					<path class="st2" d="M104.5,129.2c0,0-22,8.7-37.9,23.4L80,271.2l79.3-6.7l1.8-73c0,0,15.4-21.3-1.2-38.3
						C145,137.9,135.1,124.1,104.5,129.2z"/>
				</g>
				<g>
					<path class="st4" d="M167,123.6c2.7-0.5,3.9-3.8,3.6-6.6c-0.3-2.7-1.5-5.4-1.6-8.1c-0.1-5.6,4.7-10.6,3.6-16.1
						c-0.8-3.8-4.3-6.5-5.2-10.3c-1.1-4.7,2.1-9.7,0.9-14.3c-1.2-4.5-6.1-6.9-9.1-10.6c-4.5-5.6-4.6-14.5-10.4-18.7
						c-4.2-3.1-9.9-2.6-14.8-4.4c-3.6-1.3-6.7-3.9-10.4-4.9c-5.7-1.5-11.6,0.9-16.9,3.3c-8.1,3.6-16.2,7.3-22.9,12.9
						c-6.7,5.7-12,13.7-12.4,22.5C71,74,72.8,80,70.9,85.4c-1.5,4.3-5.1,8.3-4.1,12.7c0.9,4.1,5.5,6.7,6,10.9
						c0.4,3.3-1.9,6.2-2.9,9.3c-1.5,4.9,0.8,10.7,5.3,13.3L167,123.6z"/>
				</g>
				<g>
					<g>
						<path class="st5" d="M100.9,133.8l-7.8-38.6c0,0-15.1,5.6-16.6-6.8c-1.3-11,10.7-12.2,16.6-7.1c0,0-11.3-38.4,22.1-42.2
							c33.4-3.8,34.7,42,35.1,53.1c0.7,19.5-13.1,29.2-23.2,30.4l1.1,12c0,0,1,10.5-8.8,11.1C106.2,146.3,100.9,133.8,100.9,133.8z"
							/>
					</g>
				</g>
				<g>
					<g>
						<path class="st5" d="M146.9,80.6c0,0,13.7-9.5,16.5,3.6c3,14.3-16.8,10.5-16.8,10.5L146.9,80.6z"/>
					</g>
				</g>
				<g>
					<g>
						<path class="st3" d="M116.7,78.1c-0.2,2,1.2,3.8,3.1,4c2,0.2,3.8-1.2,4-3.1c0.2-2-1.2-3.8-3.1-4
							C118.8,74.7,117,76.1,116.7,78.1z"/>
					</g>
				</g>
				<g>
					<g>
						<path class="st3" d="M134.4,77.5c-0.2,2,1.2,3.8,3.1,4c2,0.2,3.8-1.2,4-3.1c0.2-2-1.2-3.8-3.1-4S134.6,75.6,134.4,77.5z"/>
					</g>
				</g>
				<g>
					<g>
						<path class="st3" d="M127.5,92.1c0.1,0,0.2,0,0.3,0c1.6-0.4,3.6-1.1,4.5-3c0.9-2,0.2-4.8-2-8.7c-0.3-0.5-0.9-0.7-1.5-0.4
							c-0.5,0.3-0.7,0.9-0.4,1.5c2.3,4,2.3,5.9,1.9,6.8c-0.3,0.8-1.2,1.3-3,1.8c-0.6,0.1-0.9,0.7-0.8,1.3
							C126.6,91.7,127,92.1,127.5,92.1z"/>
					</g>
				</g>
				<g>
					<g>
						<path class="st3" d="M129.4,97.7c0.6,0,1.1-0.5,1.1-1c0-0.6-0.4-1.1-1-1.1c-2.7-0.1-5.4-1.2-7.4-3.1c-0.4-0.4-1.1-0.4-1.5,0
							c-0.4,0.4-0.4,1.1,0,1.5C122.9,96.2,126.1,97.6,129.4,97.7C129.4,97.7,129.4,97.7,129.4,97.7z"/>
					</g>
				</g>
				<g>
					<g>
						<path class="st3" d="M149.9,92.6c0.6,0,1-0.4,1.1-1c0.3-3.2,0.2-6.4-0.2-9.5c-0.1-0.6-0.6-1-1.2-0.9c-0.6,0.1-1,0.6-0.9,1.2
							c0.4,3,0.4,6.1,0.2,9.1C148.8,92,149.2,92.6,149.9,92.6C149.8,92.6,149.8,92.6,149.9,92.6z"/>
					</g>
				</g>
				<g>
					<g>
						<path class="st3" d="M150.5,87.4c0.1,0,0.1,0,0.2,0l4.7-0.8c0.6-0.1,1-0.7,0.9-1.2c-0.1-0.6-0.6-1-1.2-0.9l-4.7,0.8
							c-0.6,0.1-1,0.7-0.9,1.2C149.5,87,150,87.4,150.5,87.4z"/>
					</g>
				</g>
				<g>
					<g>
						<path class="st3" d="M90.5,90.2c0,0,0.1,0,0.1,0c0.6-0.1,1-0.6,1-1.2c-0.2-2.3-1.6-4.4-3.6-5.5c-2-1.1-4.5-1.2-6.6-0.2
							c-0.5,0.3-0.8,0.9-0.5,1.4c0.3,0.5,0.9,0.8,1.4,0.5c1.5-0.7,3.2-0.6,4.6,0.1c1.4,0.8,2.4,2.3,2.6,3.9
							C89.5,89.8,89.9,90.2,90.5,90.2z"/>
					</g>
				</g>
				<g>
					<g>
						<path class="st3" d="M85.9,89.1c0.3,0,0.7-0.2,0.9-0.4l2.1-2.9c0.3-0.5,0.2-1.1-0.2-1.5c-0.5-0.4-1.1-0.2-1.5,0.2l-2.1,2.9
							c-0.3,0.5-0.2,1.1,0.2,1.5C85.5,89.1,85.7,89.1,85.9,89.1z"/>
					</g>
				</g>
				<g>
					<g>
						<path class="st3" d="M109,66.3c0.2,0,0.4-0.1,0.6-0.2c2.9-2,7-2.2,10.2-0.6c0.5,0.3,1.2,0.1,1.4-0.5c0.3-0.5,0.1-1.2-0.5-1.4
							c-3.9-2-8.7-1.7-12.3,0.7c-0.5,0.3-0.6,1-0.3,1.5C108.3,66.1,108.6,66.3,109,66.3z"/>
					</g>
				</g>
				<g>
					<g>
						<path class="st3" d="M130.1,66.6c0.3,0,0.6-0.1,0.8-0.3c2.4-2.4,6.7-2.5,9.2-0.3c0.4,0.4,1.1,0.4,1.5-0.1
							c0.4-0.4,0.3-1.1-0.1-1.5c-3.4-3-8.9-2.8-12.1,0.4c-0.4,0.4-0.4,1.1,0,1.5C129.6,66.4,129.9,66.6,130.1,66.6z"/>
					</g>
				</g>
				<g>
					<path class="st3" d="M128.1,122.3c-6.6,1.3-20.8-4.4-20.8-4.4s8.2,9.2,20.2,10.5L128.1,122.3z"/>
				</g>
				<g>
					<path class="st4" d="M74.4,76.8c4.7-12.4,14.6-22.6,22.2-33.4c2.6-3.7,8.4-7.9,13.1-8.2c0,0,12.6-1,12.6-1l11.4,4.5l9.1,5.5
						l7.5,13.1l2.2,10.8L149.6,79c0,0-0.7-16.4-12-27.8c0.7,2.6-2.4,5.3-4.8,6.4c-2.5,1.1-5.3,1.8-6.8,4.1c-1.7,2.6-1,6.5-3.2,8.7
						c-3,3-8.6,0.6-12,3.1c-4,3.1-1.1,10-3.8,14.3c-1.8,2.8-5.6,3.8-7.6,6.4c-3.3,4.2-0.8,10.8-3.5,15.5c-2,3.4-6.5,4.8-10.4,3.9
						c-3.8-0.9-7-3.8-9.2-7.1C70.6,97.9,70.8,86.4,74.4,76.8z"/>
				</g>
				<g>
					<path class="st5" d="M160.4,259.4c0,0,16.1,4.1,20.3,9.5c4.2,5.4,2.7,28.1-0.6,28.8c-3.3,0.6-14.1,0.9-14.2-0.9
						c-0.1-1.8,2.9-3.6,2.9-3.6s-7-0.7-5.8-3.4c1.2-2.7,5.5-2.1,5.5-2.1s-10-4.7-10.3-9.8l-6.9-2.1L160.4,259.4z"/>
				</g>
				<g>
					<path class="st2" d="M66.6,152.6c-9.5,11.1-22.6,92.9-14,109c8.6,16.1,98.8,14.1,98.8,14.1l14.6-20.2l-85.5-16.4L66.6,152.6z"
						/>
				</g>
				<g>
					<polygon class="st3" points="121.3,247 80.5,239.2 80.5,196.9 84.1,236.6 					"/>
				</g>
			</g>
		</g>
	</g>
</g>
</svg>
