<?xml version="1.0" encoding="utf-8"?>
<!-- Generator: Adobe Illustrator 25.0.1, SVG Export Plug-In . SVG Version: 6.00 Build 0)  -->
<svg version="1.1" id="OBJECTS" xmlns="http://www.w3.org/2000/svg" xmlns:xlink="http://www.w3.org/1999/xlink" x="0px" y="0px"
	 viewBox="0 0 240 240" style="enable-background:new 0 0 240 240;" xml:space="preserve">
<style type="text/css">
	.st0{fill:#FFFFFF;}
	.st1{clip-path:url(#SVGID_2_);}
	.st2{fill:#FFAA2D;}
	.st3{fill:#FF5710;}
	.st4{fill:#001A2D;}
</style>
<g>
	<g>
		<circle class="st0" cx="120" cy="120.6" r="118.2"/>
		<path d="M120,240C54.2,240,0.6,186.4,0.6,120.6C0.6,54.8,54.2,1.2,120,1.2s119.4,53.6,119.4,119.4C239.4,186.4,185.8,240,120,240z
			 M120,3.6C55.5,3.6,3,56.1,3,120.6s52.5,117,117,117s117-52.5,117-117S184.5,3.6,120,3.6z"/>
	</g>
	<g>
		<defs>
			<ellipse id="SVGID_1_" cx="120" cy="118.7" rx="118.2" ry="118.7"/>
		</defs>
		<clipPath id="SVGID_2_">
			<use xlink:href="#SVGID_1_"  style="overflow:visible;"/>
		</clipPath>
		<g class="st1">
			<g>
				<polygon class="st2" points="290.4,173.1 283,179.7 267.8,168.7 279.8,155 				"/>
			</g>
			<g>
				<path class="st3" d="M56.4,235.1l0.4,98.1l110.8-9.8l6.5-117.4l-19-53.2l-35.5-6.4l-19.7,4L67.2,157
					c-7.1,1.4-13.3,5.5-17.4,11.4L56.4,235.1z"/>
			</g>
			<g>
				<path class="st4" d="M170.8,267.5l-91-8.7l-25.2-43.2v18.2l2,24.8C70.1,281.1,83.5,294.2,91,296c7.7,1.8,58.1-5.4,78.7-8.4
					L170.8,267.5z"/>
			</g>
			<g>
				<path class="st4" d="M136,58.1c0,0,7,13.1,5.8,26.6C140.6,98,128,58.1,128,58.1L136,58.1z"/>
			</g>
			<g>
				<path class="st4" d="M96.1,138.4c-2.5,0.4-6.3,5.4-5.6,10.1c1.5,9.8,15.1,26.9,18.6,25c3.5-1.9,10.8-13.3,10.8-13.3
					s15.7,8.2,18.1,7.1c2.4-1-6.2-24.6-13.1-27.8C117.9,136.4,96.1,138.4,96.1,138.4z"/>
			</g>
			<g>
				<g>
					<path class="st2" d="M99.9,150.4l-12.2-38.3c0,0-14.7,7.3-17.5-5.1c-2.6-11,9.5-13.5,16.1-9c0,0-15.7-37.7,17.7-45.3
						s39.8,38.7,41.5,49.9c2.8,19.7-10.1,31.1-20.2,33.4l2.4,12c0,0,2.2,10.5-7.7,12.2C106.7,162.5,99.9,150.4,99.9,150.4z"/>
				</g>
			</g>
			<g>
				<g>
					<path class="st2" d="M140.7,91.4c0,0,12.9-11.1,17.1,1.8c4.7,14.2-15.8,12.5-15.8,12.5L140.7,91.4z"/>
				</g>
			</g>
			<g>
				<g>
					<path class="st4" d="M131,90.2c0,2,1.6,3.7,3.6,3.7c2,0,3.7-1.6,3.7-3.6c0-2-1.6-3.7-3.6-3.7C132.7,86.5,131,88.1,131,90.2z"/>
				</g>
			</g>
			<g>
				<g>
					<path class="st4" d="M109.4,90.6c0,2,1.6,3.7,3.6,3.7c2,0,3.7-1.6,3.7-3.6c0-2-1.6-3.7-3.6-3.7
						C111.1,86.9,109.5,88.5,109.4,90.6z"/>
				</g>
			</g>
			<g>
				<g>
					<path class="st4" d="M121,103.8c-0.4,0-0.8-0.2-0.9-0.7c-0.2-0.5,0.1-1.1,0.6-1.3c1.3-0.5,1.2-2.2,0.4-6.4
						c-0.3-1.6-0.6-3.4-0.8-5.3c-0.1-0.5,0.3-1,0.9-1.1c0.6-0.1,1,0.3,1.1,0.9c0.2,1.8,0.5,3.6,0.8,5.1c0.7,4,1.4,7.5-1.7,8.6
						C121.2,103.8,121.1,103.8,121,103.8z"/>
				</g>
			</g>
			<g>
				<g>
					<path class="st4" d="M122,111.3c-0.9,0-1.8-0.1-2.7-0.3c-2.7-0.7-5.2-2.4-6.8-4.7c-0.3-0.4-0.2-1.1,0.3-1.4
						c0.4-0.3,1.1-0.2,1.4,0.3c1.3,1.9,3.4,3.3,5.6,3.9c2.2,0.5,4.7,0.2,6.7-0.9c0.5-0.3,1.1-0.1,1.3,0.4c0.3,0.5,0.1,1.1-0.4,1.3
						C125.8,110.8,123.9,111.3,122,111.3z"/>
				</g>
			</g>
			<g>
				<g>
					<path class="st4" d="M144.9,103.2c-0.5,0-1-0.4-1-1c-0.1-3.1-0.5-6.2-1.2-9.2c-0.1-0.5,0.2-1.1,0.7-1.2
						c0.5-0.1,1.1,0.2,1.2,0.7c0.7,3.1,1.1,6.4,1.2,9.6C145.9,102.7,145.5,103.2,144.9,103.2C144.9,103.2,144.9,103.2,144.9,103.2z"
						/>
				</g>
			</g>
			<g>
				<g>
					<path class="st4" d="M144.9,97.8c-0.4,0-0.8-0.3-0.9-0.7c-0.2-0.5,0.2-1.1,0.7-1.2l4.7-1.4c0.5-0.1,1.1,0.2,1.2,0.7
						c0.2,0.5-0.2,1.1-0.7,1.2l-4.7,1.4C145.1,97.8,145,97.8,144.9,97.8z"/>
				</g>
			</g>
			<g>
				<g>
					<path class="st4" d="M84.5,107.3c-0.5,0-0.9-0.3-1-0.8c-0.4-1.6-1.5-3.1-3.1-3.7c-1.5-0.7-3.4-0.5-4.8,0.4
						c-0.5,0.3-1.1,0.1-1.4-0.3c-0.3-0.5-0.1-1.1,0.3-1.4c2-1.2,4.5-1.4,6.6-0.5c2.1,0.9,3.7,2.8,4.2,5.1c0.1,0.5-0.2,1.1-0.8,1.2
						C84.6,107.3,84.5,107.3,84.5,107.3z"/>
				</g>
			</g>
			<g>
				<g>
					<path class="st4" d="M79.7,106.7c-0.2,0-0.3,0-0.5-0.1c-0.5-0.3-0.6-0.9-0.4-1.3l1.8-3.1c0.3-0.5,0.9-0.6,1.3-0.4
						c0.5,0.3,0.6,0.9,0.4,1.3l-1.8,3.1C80.4,106.5,80.1,106.7,79.7,106.7z"/>
				</g>
			</g>
			<g>
				<path class="st4" d="M131.8,67.8c-10.1,5.1-31.5-0.8-38.6,0.6c-7.1,1.4-6.8,14.2-4.5,23.1c2.3,9,1.6,13.5,0.1,10.9
					c-1.5-2.6-8.7-7.4-13.3-6c0,0-11.5-18.8-8.8-28.5S78.9,60,78.9,60c-1.5-1.4-0.4-3.4,0.3-5.4c1-3.3,3.3-6.1,6.2-7.9
					s6.6-2.3,9.9-1.6c-1.4-3.6-0.2-9.2,3-11.6c3.1-2.4,7.8-2.4,11,0c2.6-5.7,8.4-9.8,14.6-10.3c6.2-0.5,12.6,2.6,16.1,7.8
					c3.5,5.2,3.9,12.3,1,17.9c4.3,1.3,7.7,5.2,8.3,9.7c0.6,4.4-1.6,9.1-5.5,11.5C139.9,72.4,135.5,70.3,131.8,67.8z"/>
			</g>
			<g>
				<g>
					<path class="st4" d="M101.7,81.8c-0.3,0-0.7-0.1-0.9-0.4c-0.4-0.5-0.3-1.2,0.2-1.7c3.5-2.9,8.5-3.7,12.7-2.2
						c0.6,0.2,0.9,0.9,0.7,1.5c-0.2,0.6-0.9,0.9-1.5,0.7c-3.4-1.3-7.6-0.6-10.4,1.8C102.2,81.7,102,81.8,101.7,81.8z"/>
				</g>
			</g>
			<g>
				<g>
					<path class="st4" d="M123.5,79.7c-0.3,0-0.5-0.1-0.7-0.3c-0.5-0.4-0.6-1.1-0.2-1.6c2.9-3.7,8.7-4.5,12.5-1.8
						c0.5,0.4,0.7,1.1,0.3,1.6c-0.4,0.5-1.1,0.7-1.6,0.3c-2.8-2-7.2-1.4-9.3,1.3C124.2,79.5,123.9,79.7,123.5,79.7z"/>
				</g>
			</g>
			<g>
				<path class="st4" d="M125.2,136c-6.6,2-20.5-2.4-20.5-2.4s9.3,8.6,21.7,8.6L125.2,136z"/>
			</g>
			<g>
				<path class="st3" d="M159.7,193.9l10.4,22.7c0,0,2.5,4.4,6.6,10.7c0.7,1,1.4,2.1,2.1,3.2v0c9.9,14.5,26.2,35.6,39.7,35.6
					c13.9,0,72.1-90.2,72.1-90.2L266.4,163l-49.2,61.5c0,0-36.1-55.8-39.2-59.3c-6.8-7.7-14.2-11.1-22.8-12.5L159.7,193.9z"/>
			</g>
			<g>
				<path class="st4" d="M173.2,222.8l0.9-16.9l8.9,30.5C183.1,236.5,175.4,227.4,173.2,222.8z"/>
			</g>
			<g>
				<path class="st3" d="M49.7,168.5c-9.6,16.6,14.7,111.2,38.5,122.3c23.8,11.1,108.7-18.4,108.7-18.4l-1.7-29.6l-85.5,10.7
					L49.7,168.5z"/>
			</g>
			<g>
				<polygon class="st4" points="109.8,253.5 87.5,205.9 112.6,249.7 156.7,247.6 				"/>
			</g>
			<g>
				<path class="st2" d="M195.3,251.6c0,0,14.6-2.7,20.4-3.2c5.8-0.5,20.4,6.4,20.4,8.9c0,2.5-9.6,15.1-9.6,15.1H197L195.3,251.6z"
					/>
			</g>
		</g>
	</g>
</g>
</svg>
