<?xml version="1.0" encoding="utf-8"?>
<!-- Generator: Adobe Illustrator 25.0.1, SVG Export Plug-In . SVG Version: 6.00 Build 0)  -->
<svg version="1.1" id="OBJECTS" xmlns="http://www.w3.org/2000/svg" xmlns:xlink="http://www.w3.org/1999/xlink" x="0px" y="0px"
	 viewBox="0 0 350 350" style="enable-background:new 0 0 350 350;" xml:space="preserve">
<style type="text/css">
	.st0{opacity:7.000000e-02;}
	.st1{fill:#3F2517;}
	.st2{fill:#FFFDD0;}
	.st3{fill:#96BF60;}
	.st4{fill:#EBE662;}
	.st5{fill:#FFFFFF;}
	.st6{fill:#DAD0BF;}
	.st7{fill:#FF696A;}
	.st8{opacity:0.2;fill:#030909;}
</style>
<g class="st0">
	<path class="st1" d="M91.2,109.2c9.4-1.5,17.7-5.7,24.2-11.6l81.2,96v133.6c-31.9,1.1-52,10.9-52,22.8h82.2h34
		c0-11.9-20.1-21.7-52-22.8V193.6L320.1,62h-34H131.3c0-2.5-0.2-5.1-0.6-7.7c-4.2-26-28.8-43.7-54.8-39.5
		c-12.6,2-23.6,8.9-31.1,19.2c-7.5,10.4-10.4,23-8.4,35.6c2,12.6,8.9,23.6,19.2,31.1c8.2,5.9,17.9,9,27.8,9
		C86,109.8,88.6,109.6,91.2,109.2z"/>
</g>
<g>
	<g>
		<g>
			
				<ellipse transform="matrix(0.6885 -0.7253 0.7253 0.6885 -14.2986 62.2776)" class="st2" cx="65.3" cy="47.8" rx="45.5" ry="45.5"/>
			<g>
				<path class="st3" d="M65.2,95.6c-9.9,0-19.6-3.1-27.8-9C27.1,79.1,20.2,68,18.2,55.4c-2-12.6,0.9-25.2,8.4-35.6
					C34,9.5,45.1,2.7,57.7,0.6c26-4.2,50.6,13.5,54.8,39.5c4.2,26-13.5,50.6-39.5,54.8C70.4,95.4,67.8,95.6,65.2,95.6z M65.4,4.6
					c-2.3,0-4.6,0.2-7,0.6C34.9,9,18.9,31.2,22.7,54.7v0c1.8,11.4,8,21.4,17.4,28.1c9.4,6.7,20.8,9.4,32.2,7.6
					c23.5-3.8,39.5-26,35.7-49.5C104.5,19.7,86.1,4.6,65.4,4.6z"/>
			</g>
			<path class="st4" d="M64.2,44.8c0,0-28.3-27.8-5.7-35C58.5,9.7,86,4.9,64.2,44.8z"/>
			<path class="st4" d="M61.1,47.8c0,0-39.2,6.3-31.6-16.2C29.5,31.6,41.9,6.5,61.1,47.8z"/>
			<path class="st4" d="M69.7,46.4c0,0,39.1-6.4,24.8-25.3C94.5,21,74.8,1.2,69.7,46.4z"/>
			<path class="st4" d="M66.9,51.3c0,0,28.3,27.8,5.7,35C72.6,86.3,45.1,91.1,66.9,51.3z"/>
			<path class="st4" d="M61.4,49.7c0,0-39.1,6.4-24.8,25.3C36.6,75,56.3,94.8,61.4,49.7z"/>
		</g>
		<g>
			<g>
				<path class="st5" d="M123.4,338.8v-3c0-13.9,20.8-24.1,52-25.7V180.4L60.6,44.7h247.9L193.7,180.4V310c31.2,1.6,52,11.8,52,25.7
					v3H123.4z"/>
				<path class="st6" d="M301.9,47.8L190.6,179.3v133.6c31.9,1.1,52,10.9,52,22.8H126.5c0-11.9,20.1-21.7,52-22.8V179.3L67.2,47.8
					H301.9 M315.1,41.7h-13.1H67.2H54.1l8.5,10l109.9,129.8v125.6c-31.8,2.2-52,13.2-52,28.6v6.1h6.1h116.1h6.1v-6.1
					c0-15.4-20.2-26.4-52-28.6V181.5L306.6,51.7L315.1,41.7L315.1,41.7z"/>
			</g>
			<polygon class="st7" points="107.5,82.5 184.6,173.5 261.6,82.5 			"/>
			<path class="st8" d="M190.6,312.9V179.3L301.9,47.8h-34L167.6,166.4l10.9,12.9v133.6c-3.8,0.1-7.5,0.4-10.9,0.8
				c25.5,2.7,41.1,11.6,41.1,22h34C242.6,323.8,222.5,314,190.6,312.9z"/>
		</g>
	</g>
	<g>
		<line class="st5" x1="42.2" y1="338.8" x2="332.4" y2="338.8"/>
		<rect x="42.2" y="335.7" class="st6" width="290.2" height="6.1"/>
	</g>
</g>
</svg>
