<?xml version="1.0" encoding="utf-8"?>
<!-- Generator: Adobe Illustrator 25.0.1, SVG Export Plug-In . SVG Version: 6.00 Build 0)  -->
<svg version="1.1" id="OBJECTS" xmlns="http://www.w3.org/2000/svg" xmlns:xlink="http://www.w3.org/1999/xlink" x="0px" y="0px"
	 viewBox="0 0 350 350" style="enable-background:new 0 0 350 350;" xml:space="preserve">
<style type="text/css">
	.st0{fill:#FFFFFF;}
	.st1{fill:#DAD0BF;}
	.st2{opacity:7.000000e-02;fill:#3F2517;enable-background:new    ;}
	.st3{fill:#70A0DF;}
	.st4{fill:#99BFEF;}
	.st5{fill:#99BFF1;}
	.st6{fill:#292C4A;}
</style>
<g>
	<g>
		<circle class="st0" cx="175" cy="173.7" r="172.3"/>
		<path class="st1" d="M175,347.8c-96,0-174.1-78.1-174.1-174.1S79-0.4,175-0.4s174.1,78.1,174.1,174.1S271,347.8,175,347.8z
			 M175,3.3C81,3.3,4.6,79.7,4.6,173.7S81,344.1,175,344.1s170.4-76.5,170.4-170.4S269,3.3,175,3.3z"/>
	</g>
	<g>
		<circle class="st0" cx="175" cy="173.7" r="143.8"/>
		<path class="st1" d="M175,319.3c-80.3,0-145.6-65.3-145.6-145.6S94.7,28.1,175,28.1s145.6,65.3,145.6,145.6S255.3,319.3,175,319.3
			z M175,31.8c-78.3,0-141.9,63.7-141.9,141.9s63.6,142,141.9,142s141.9-63.7,141.9-142S253.3,31.8,175,31.8z"/>
	</g>
	<path class="st2" d="M283.2,247.4l21.7-71.3c-16.2,3.9-31.7,8.4-43.5,12c-7.8-9.6-18.2-22-29.6-34.4l17-49.2l-66.9,4.1
		c-4.2-2.6-8.1-4.5-11.7-5.6c-8.9-2.7-17.9-3.5-26.6-2.6c-1.5,0.2-3.1,0.3-4.7,0.6c-26.5,3.5-65.7,15.6-73.4,41
		c-6.7,22,15.4,50,31.3,67.7c1.4,1.5,2.7,3,3.9,4.3c7.9,8.5,18.1,15.1,30,18.8c8,2.5,19.8,2.5,33.2,1l33.8,30.2l13.5-39.1
		c15.9-3.9,31-8.2,42.6-11.8C261.6,222.8,271.9,235.1,283.2,247.4z"/>
	<g>
		<g>
			<g>
				<polygon class="st3" points="152,101.6 239.3,96.2 217.3,159.8 				"/>
			</g>
			<g>
				<polygon class="st3" points="122.8,197.4 210,192.1 188.1,255.6 				"/>
			</g>
			<g>
				<path class="st3" d="M229.9,186.8c0,0,31-10.7,65.4-19L273.6,239C249.7,212.9,229.9,186.8,229.9,186.8z"/>
			</g>
			<g>
				<g>
					<path class="st4" d="M266.1,197.8c0,0-109.2,37.6-145,26.7c-11.9-3.6-22.1-10.2-30-18.8c-1.3-1.4-2.6-2.8-3.9-4.3
						c-15.9-17.7-38-45.7-31.3-67.7c7.7-25.4,46.9-37.5,73.4-41c1.6-0.2,3.2-0.4,4.7-0.6c8.7-0.9,17.7-0.1,26.6,2.6
						C196.5,105.7,266.1,197.8,266.1,197.8z"/>
				</g>
				<g>
					<g>
						<path class="st3" d="M156.4,144.2l-1.3-1.3c7-6.7,10-17.6,7.5-27l1.8-0.5C167.2,125.4,163.9,137,156.4,144.2z"/>
					</g>
					<g>
						<path class="st3" d="M143.7,185.9l-1.3-1.3c7-6.7,10-17.6,7.5-27l1.8-0.5C154.5,167.1,151.2,178.7,143.7,185.9z"/>
					</g>
					<g>
						<path class="st3" d="M165.9,173.4l-1.3-1.3c7-6.7,10-17.6,7.5-27l1.8-0.5C176.7,154.6,173.4,166.2,165.9,173.4z"/>
					</g>
					<g>
						<path class="st3" d="M185,163.2l-1.3-1.3c7-6.7,10-17.6,7.5-27l1.8-0.5C195.8,144.4,192.5,156,185,163.2z"/>
					</g>
					<g>
						<path class="st3" d="M194.4,187.7l-1.3-1.3c7-6.7,10-17.6,7.5-27l1.8-0.5C205.2,168.9,201.9,180.5,194.4,187.7z"/>
					</g>
					<g>
						<path class="st3" d="M215.3,175.5l-1.3-1.3c4.9-4.7,6.9-11.9,5.1-18.5l1.8-0.5C222.9,162.4,220.7,170.3,215.3,175.5z"/>
					</g>
					<g>
						<path class="st3" d="M224.1,194.9l-1.3-1.3c4.9-4.7,6.9-11.9,5.1-18.5l1.8-0.5C231.7,181.8,229.5,189.7,224.1,194.9z"/>
					</g>
					<g>
						<path class="st3" d="M206.6,203.8l-1.3-1.3c4.9-4.7,6.9-11.9,5.1-18.5l1.8-0.5C214.2,190.7,212,198.6,206.6,203.8z"/>
					</g>
					<g>
						<path class="st3" d="M173.5,203l-1.3-1.3c7-6.7,10-17.6,7.5-27l1.8-0.5C184.3,184.2,181,195.8,173.5,203z"/>
					</g>
					<g>
						<path class="st3" d="M154.6,212.4l-1.3-1.3c7-6.7,10-17.6,7.5-27l1.8-0.5C165.4,193.6,162.1,205.2,154.6,212.4z"/>
					</g>
					<g>
						<path class="st3" d="M131.8,219l-1.3-1.3c7-6.7,10-17.6,7.5-27l1.8-0.5C142.6,200.2,139.3,211.8,131.8,219z"/>
					</g>
				</g>
			</g>
			<g>
				<g>
					<path class="st3" d="M124.4,144.9c-8,26.2-22.3,46.9-37.2,56.5c-15.9-17.7-38-45.7-31.3-67.7c7.7-25.4,46.9-37.5,73.4-41
						C131.6,107.6,130.1,126,124.4,144.9z"/>
				</g>
				<g>
					<path class="st5" d="M89.2,128.7c1.4-4.5,6.1-7,10.6-5.7c4.5,1.4,7,6.1,5.7,10.6c-1.4,4.5-6.1,7-10.6,5.7
						C90.4,138,87.9,133.2,89.2,128.7z"/>
				</g>
				<g>
					<path class="st6" d="M94.2,130.2c0.5-1.7,2.4-2.7,4.1-2.2s2.7,2.4,2.2,4.1c-0.5,1.7-2.4,2.7-4.1,2.2S93.7,132,94.2,130.2z"/>
				</g>
			</g>
		</g>
	</g>
</g>
</svg>
