<?xml version="1.0" encoding="utf-8"?>
<!-- Generator: Adobe Illustrator 25.0.1, SVG Export Plug-In . SVG Version: 6.00 Build 0)  -->
<svg version="1.1" id="OBJECTS" xmlns="http://www.w3.org/2000/svg" xmlns:xlink="http://www.w3.org/1999/xlink" x="0px" y="0px"
	 viewBox="0 0 350 350" style="enable-background:new 0 0 350 350;" xml:space="preserve">
<style type="text/css">
	.st0{fill:#FFFFFF;}
	.st1{fill:#DAD0BF;}
	.st2{opacity:7.000000e-02;fill:#3F2517;}
	.st3{fill:#FF6460;}
	.st4{fill:#FEC4BA;}
	.st5{clip-path:url(#SVGID_2_);}
</style>
<g>
	<g>
		<circle class="st0" cx="175" cy="175" r="172.3"/>
		<path class="st1" d="M175,349.1C79,349.1,0.9,271,0.9,175C0.9,79,79,0.9,175,0.9S349.1,79,349.1,175
			C349.1,271,271,349.1,175,349.1z M175,4.6C81,4.6,4.6,81,4.6,175S81,345.4,175,345.4S345.4,269,345.4,175S269,4.6,175,4.6z"/>
	</g>
	<g>
		<circle class="st0" cx="175" cy="175" r="143.8"/>
		<path class="st1" d="M175,320.6c-80.3,0-145.6-65.3-145.6-145.6C29.4,94.7,94.7,29.4,175,29.4S320.6,94.7,320.6,175
			C320.6,255.3,255.3,320.6,175,320.6z M175,33.1C96.7,33.1,33.1,96.7,33.1,175c0,78.3,63.7,141.9,141.9,141.9
			S316.9,253.3,316.9,175C316.9,96.7,253.3,33.1,175,33.1z"/>
	</g>
	<path class="st2" d="M275.8,160.9c10.2,25.9-2.8,55.1-28.4,66.1l-75.6,32.4c-37,15.8-80.8-1.2-95.9-38.5
		c-14.6-36.1,2.3-77.4,38.3-92.8c21.4-9.1,44.7-7.1,63.5,3.5c9.4,5.3,20.6,5.4,30.5,1.2c0.1,0,0.1-0.1,0.2-0.1
		C234.7,121.5,265.2,134.1,275.8,160.9z"/>
	<g>
		<path class="st3" d="M278.2,142.6c10.2,25.9-2.8,55.1-28.4,66.1L174.2,241c-37,15.8-80.8-1.2-95.9-38.5
			c-14.6-36.1,2.3-77.4,38.3-92.8c21.4-9.1,44.7-7.1,63.5,3.5c9.4,5.3,20.6,5.4,30.5,1.2c0.1,0,0.1-0.1,0.2-0.1
			C237.1,103.1,267.6,115.8,278.2,142.6z"/>
		<path class="st0" d="M273.4,131.3c10.2,25.9-2.8,55.1-28.4,66.1l-75.6,32.4c-37,15.8-80.8-1.2-95.9-38.5
			c-14.6-36.1,2.3-77.4,38.3-92.8c21.4-9.1,44.7-7.1,63.5,3.5c9.4,5.3,20.6,5.4,30.5,1.2c0.1,0,0.1-0.1,0.2-0.1
			C232.2,91.9,262.8,104.5,273.4,131.3z"/>
		<path class="st4" d="M263.9,133.2c9.3,23.5-2.5,50.1-25.8,60l-68.7,29.4c-33.6,14.4-73.4-1.1-87.2-34.9
			c-13.3-32.8,2.1-70.3,34.8-84.3c19.4-8.3,40.6-6.4,57.7,3.2c8.5,4.8,18.7,4.9,27.7,1.1c0.1,0,0.1,0,0.2-0.1
			C226.5,97.4,254.3,108.8,263.9,133.2z"/>
		<g>
			
				<ellipse transform="matrix(0.5358 -0.8443 0.8443 0.5358 -72.29 179.1252)" class="st0" cx="126.8" cy="155.3" rx="18.3" ry="18.3"/>
			<path class="st0" d="M144.5,138c-1.1-2.7,0.1-5.8,2.8-6.9c2.7-1.1,5.8,0.1,6.9,2.8s-0.1,5.8-2.8,6.9
				C148.7,141.9,145.7,140.7,144.5,138z"/>
		</g>
		<g>
			<defs>
				<path id="SVGID_1_" d="M263.9,133.2c9.3,23.5-2.5,50.1-25.8,60l-68.7,29.4c-33.6,14.4-73.4-1.1-87.2-34.9
					c-13.3-32.8,2.1-70.3,34.8-84.3c19.4-8.3,40.6-6.4,57.7,3.2c8.5,4.8,18.7,4.9,27.7,1.1c0.1,0,0.1,0,0.2-0.1
					C226.5,97.4,254.3,108.8,263.9,133.2z"/>
			</defs>
			<clipPath id="SVGID_2_">
				<use xlink:href="#SVGID_1_"  style="overflow:visible;"/>
			</clipPath>
			<g class="st5">
				<g>
					<path class="st3" d="M139.9,90.4c-11.4,2.6-21.8,9-29.6,17.5c-7.9,8.5-13.5,19-17.1,30c-3.6,11-5.3,22.6-4.7,34.1
						c0.7,11.5,4.2,22.8,10.4,32.4c3.1,4.8,6.8,9.2,11.2,12.8c4.4,3.6,9.3,6.5,14.6,8.5c10.7,4,22.5,4.4,33.8,2.8
						c5.7-0.8,11.3-2.2,16.6-4.2c5.3-2,10.5-4.6,15.1-7.8c2.4-1.6,4.5-3.4,6.6-5.3c2.1-1.9,4-4,5.7-6.2c3.5-4.5,6.2-9.5,8-14.8
						c0.5-1.3,0.8-2.7,1.2-4c0.3-1.4,0.7-2.7,0.9-4.1c0.5-2.8,0.7-5.6,0.8-8.4c0.1-5.7-0.7-11.3-2-16.9c-2.6-11.2-6.7-22.2-9.3-33.8
						c-0.7-2.9-1.2-5.8-1.4-8.9c-0.2-3,0-6.2,1-9.3c1-3,2.9-5.8,5.3-7.9c2.4-2.1,5.3-3.5,8.3-4.4c3-0.9,6.2-1.1,9.3-0.7
						c3.1,0.4,6.2,1.4,8.8,3c2.7,1.6,5.1,3.6,7.1,5.9c2,2.3,3.7,4.9,5.1,7.6c2.8,5.4,4,11.5,4.4,17.4c0.3,6-0.2,11.9-1.1,17.7
						c-0.9,5.8-2.1,11.5-2.3,17.2c-0.1,2.9,0,5.7,0.7,8.4c0.6,2.7,1.7,5.4,3.4,7.6c6.6,9.1,20.7,12.2,30.6,6.2
						c4.9-2.9,8.7-7.7,10.8-13.1c2.1-5.4,2.7-11.4,1.2-17.1c1.6,5.6,1.3,11.8-0.7,17.3c-2,5.5-5.7,10.5-10.8,13.7
						c-5.1,3.2-11.4,4.1-17.3,3c-5.9-1.1-11.5-4.2-15.2-9c-1.9-2.4-3.1-5.3-3.8-8.2c-0.7-2.9-0.9-6-0.9-9c0.1-6,1.3-11.8,2.1-17.5
						c0.8-5.7,1.2-11.5,0.8-17.2c-0.4-5.7-1.7-11.3-4.3-16.3c-1.3-2.5-2.9-4.8-4.8-6.9c-1.9-2-4-3.8-6.4-5.2c-2.4-1.4-5-2.3-7.7-2.6
						c-2.7-0.3-5.5-0.1-8.1,0.7c-2.6,0.8-5,2-7.1,3.8c-2,1.8-3.5,4-4.3,6.5c-0.8,2.5-1,5.3-0.8,8c0.2,2.8,0.7,5.6,1.4,8.4
						c2.6,11.2,6.8,22.2,9.5,33.7c1.4,5.7,2.3,11.8,2.2,17.8c-0.1,3-0.2,6-0.8,9c-0.2,1.5-0.6,3-0.9,4.4l-0.6,2.2
						c-0.2,0.7-0.4,1.5-0.7,2.2c-2,5.7-5,11.1-8.7,15.8c-1.9,2.4-3.9,4.6-6.1,6.6c-2.2,2-4.6,3.9-7,5.6c-4.9,3.4-10.3,6.1-15.9,8.2
						c-5.6,2-11.4,3.5-17.3,4.3c-5.9,0.8-11.9,1.1-17.8,0.6c-6-0.4-11.9-1.6-17.5-3.8c-5.6-2.1-10.9-5.2-15.5-9.1
						c-4.6-3.9-8.4-8.6-11.6-13.7c-6.3-10.2-9.8-21.9-10.3-33.8c-0.5-11.8,1.4-23.7,5.3-34.8c3.9-11.1,9.9-21.6,18.1-30
						c2-2.1,4.2-4.1,6.5-5.9c2.3-1.8,4.7-3.5,7.3-4.9C128.6,93.5,134.2,91.6,139.9,90.4z"/>
				</g>
				<g>
					<path class="st3" d="M149,85.3c6.2,3.3,11.9,7.6,16.7,12.8c4.9,5.1,8.9,11.1,11.9,17.5c6,12.9,7.6,27.9,4.5,41.9
						c-1.5,7-4.1,13.8-7.8,20c-3.6,6.1-7.7,11.8-9.6,18.2c-0.9,3.1-1.1,6.5-0.6,9.6c0.5,3.1,1.9,6.1,4.2,8.1c2.3,2,5.4,2.8,8.5,2.6
						c3.1-0.2,6.2-1.4,8.7-3.3c2.5-1.9,4.6-4.5,6.2-7.4c1.6-2.9,2.8-6.1,3.7-9.4c1.8-6.6,2.5-13.5,2.6-20.3l-0.1-5.2l-0.4-5.2
						c0-0.9-0.2-1.7-0.3-2.6l-0.3-2.6l-0.3-2.6l-0.4-2.6c-1.1-6.9-2.7-13.7-4.4-20.5c-3.3-13.6-7.2-27.2-9.1-41.2
						c-0.5-3.5-0.9-7-0.9-10.6c0-3.5,0.3-7.1,1.2-10.6c0.9-3.4,2.6-6.7,4.9-9.4c2.3-2.7,5.3-4.8,8.7-5.8c-3.3,1.1-6.2,3.4-8.3,6.1
						c-2.1,2.7-3.6,6-4.3,9.3c-0.8,3.4-0.9,6.8-0.8,10.3c0.2,3.5,0.7,6.9,1.3,10.3c1.1,6.9,2.8,13.7,4.6,20.4l5.5,20.3
						c0.9,3.4,1.8,6.8,2.6,10.2c0.8,3.4,1.6,6.9,2.2,10.4l0.5,2.6l0.4,2.6l0.4,2.6c0.1,0.9,0.3,1.8,0.3,2.6l0.5,5.3l0.2,5.4
						c0,7.1-0.8,14.3-2.6,21.3c-0.9,3.5-2.2,6.9-4,10.2c-1.8,3.2-4.1,6.3-7.2,8.6c-3.1,2.3-6.8,3.7-10.7,4c-1.9,0.1-3.9-0.1-5.8-0.6
						c-1.9-0.6-3.7-1.6-5.2-2.9c-3.1-2.6-4.8-6.5-5.4-10.2c-0.6-3.8-0.3-7.6,0.8-11.2c1.1-3.6,2.8-6.8,4.6-9.9
						c1.8-3.1,3.8-6,5.6-8.9c1.8-2.9,3.3-6,4.6-9.2c1.3-3.2,2.4-6.4,3.1-9.8c3.2-13.4,2.1-27.8-3.3-40.5
						C170.6,103.6,161,92.6,149,85.3z"/>
				</g>
				<g>
					<path class="st3" d="M159.4,229.4c-9-1.5-17.7-5.9-24.5-12.4c-1.7-1.6-3.3-3.3-4.8-5.2c-1.5-1.9-2.8-4-3.6-6.5
						c-0.8-2.5-0.7-5.4,0.5-7.9c0.6-1.3,1.5-2.5,2.7-3.3c1.2-0.9,2.7-1.3,4.1-1.5c2.9-0.2,5.5,0.8,7.6,2.3c2.1,1.6,3.7,3.5,5,5.5
						c1.3,2,2.4,3.9,3.7,5.6c1.3,1.8,2.7,3.5,4.2,5.1c6.1,6.4,13.9,11.2,22.6,14c-9.1-1.2-17.8-5.5-24.7-11.9
						c-1.7-1.6-3.3-3.3-4.8-5.2c-1.5-1.8-2.7-3.8-4-5.6c-1.3-1.8-2.6-3.4-4.2-4.5c-1.6-1.1-3.5-1.7-5.2-1.6
						c-1.7,0.1-3.1,1.1-3.9,2.7c-0.4,0.8-0.6,1.7-0.7,2.6c-0.1,0.9,0.1,1.8,0.3,2.8c0.5,1.9,1.6,3.7,2.8,5.5
						c1.3,1.7,2.7,3.5,4.2,5.1C143,221.4,150.7,226.4,159.4,229.4z"/>
				</g>
			</g>
		</g>
	</g>
</g>
</svg>
