<?xml version="1.0" encoding="utf-8"?>
<!-- Generator: Adobe Illustrator 25.0.1, SVG Export Plug-In . SVG Version: 6.00 Build 0)  -->
<svg version="1.1" id="Capa_1" xmlns="http://www.w3.org/2000/svg" xmlns:xlink="http://www.w3.org/1999/xlink" x="0px" y="0px"
	 viewBox="0 0 30 30" style="enable-background:new 0 0 30 30;" xml:space="preserve">
<style type="text/css">
	.st0{fill:#CCC1A3;}
</style>
<g>
	<path class="st0" d="M16,0.6l3.8,8c0.2,0.3,0.5,0.6,0.8,0.6l8.5,1.3c0.9,0.1,1.3,1.3,0.6,2l-6.1,6.2c-0.3,0.3-0.4,0.6-0.3,1
		l1.4,8.8c0.2,0.9-0.8,1.7-1.6,1.2l-7.6-4.2c-0.3-0.2-0.7-0.2-1,0l-7.6,4.2c-0.8,0.4-1.8-0.3-1.6-1.2l1.4-8.8c0.1-0.4-0.1-0.8-0.3-1
		l-6.1-6.2c-0.7-0.7-0.3-1.8,0.6-2l8.5-1.3c0.4-0.1,0.7-0.3,0.8-0.6l3.8-8C14.4-0.2,15.6-0.2,16,0.6z"/>
</g>
</svg>
