<?xml version="1.0" encoding="utf-8"?>
<!-- Generator: Adobe Illustrator 25.0.1, SVG Export Plug-In . SVG Version: 6.00 Build 0)  -->
<svg version="1.1" id="Capa_1" xmlns="http://www.w3.org/2000/svg" xmlns:xlink="http://www.w3.org/1999/xlink" x="0px" y="0px"
	 viewBox="0 0 512 512" style="enable-background:new 0 0 512 512;" xml:space="preserve">
<style type="text/css">
	.st0{fill:#FFFFFF;}
	.st1{fill:#2B2B2B;}
</style>
<circle class="st0" cx="256" cy="256" r="256"/>
<g>
	<ellipse transform="matrix(0.9871 -0.1602 0.1602 0.9871 -37.7011 44.3123)" class="st1" cx="256" cy="256" rx="27.4" ry="27.4"/>
	<path class="st1" d="M293.6,180.8h-75.2c-20.8,0-37.6,16.8-37.6,37.6v75.2c0,20.8,16.8,37.6,37.6,37.6h75.2
		c20.8,0,37.6-16.8,37.6-37.6v-75.2C331.2,197.6,314.4,180.8,293.6,180.8z M287.6,215.2c0-5.2,4.2-9.5,9.5-9.5s9.5,4.2,9.5,9.5
		s-4.2,9.5-9.5,9.5S287.6,220.5,287.6,215.2z M256,297c-22.7,0-41-18.4-41-41c0-22.7,18.4-41,41-41c22.7,0,41,18.4,41,41
		C297,278.7,278.7,297,256,297z"/>
</g>
</svg>
