<?xml version="1.0" encoding="utf-8"?>
<!-- Generator: Adobe Illustrator 25.0.1, SVG Export Plug-In . SVG Version: 6.00 Build 0)  -->
<svg version="1.1" id="Capa_1" xmlns="http://www.w3.org/2000/svg" xmlns:xlink="http://www.w3.org/1999/xlink" x="0px" y="0px"
	 viewBox="0 0 512 512" style="enable-background:new 0 0 512 512;" xml:space="preserve">
<style type="text/css">
	.st0{fill:#FFFFFF;}
	.st1{fill:#2B2B2B;}
</style>
<circle class="st0" cx="256" cy="256" r="256"/>
<g>
	<path class="st1" d="M360.2,203.7c-2.5-9.3-9.9-16.7-19.2-19.2c-17-4.7-85.1-4.7-85.1-4.7s-68.1,0-85.1,4.5
		c-9.1,2.5-16.7,10-19.2,19.3c-4.5,17-4.5,52.3-4.5,52.3s0,35.5,4.5,52.3c2.5,9.3,9.9,16.7,19.2,19.2c17.2,4.7,85.1,4.7,85.1,4.7
		s68.1,0,85.1-4.5c9.3-2.5,16.7-9.9,19.2-19.2c4.5-17,4.5-52.3,4.5-52.3S364.9,220.7,360.2,203.7z"/>
	<path class="st0" d="M234.3,288.6l56.6-32.6l-56.6-32.6V288.6z"/>
</g>
</svg>
